<?xml version="1.0" encoding="utf-8"?>
<!-- Generator: Adobe Illustrator 26.3.1, SVG Export Plug-In . SVG Version: 6.00 Build 0)  -->
<svg version="1.1" id="Layer_1" xmlns="http://www.w3.org/2000/svg" xmlns:xlink="http://www.w3.org/1999/xlink" x="0px" y="0px"
	 viewBox="0 0 744 812.3" style="enable-background:new 0 0 744 812.3;" xml:space="preserve">
<style type="text/css">
	.st0{fill:#FBC6B0;}
	.st1{fill:none;}
	.st2{fill:#FF9966;}
</style>
<path class="st0" d="M604.6,201.5C441.5,164.6,349.5,67.2,189,96c-1.1,0.2-85.5,21-188,66.7v235v0.6v14.1V576v9.2l140.2,24.2
	c163.2,37,255.1,134.3,415.6,105.5c1.1-0.2,85.5-21,188-66.7V576V412.5v-14.1v-0.6V225.7L604.6,201.5z"/>
<rect x="-6.5" y="397.8" class="st1" width="755" height="178.2"/>
<rect x="-6.5" y="235" class="st1" width="755" height="178.2"/>
<path class="st2" d="M618.1,270.1c-116.2-49.3-209.7-32.5-363.4,2.7C101,308-0.9,293.5-0.9,293.5v104.9v14.1v70.7
	c0,0,8.6,8.3,124.8,57.7c116.2,49.3,209.7,32.5,363.4-2.7s255.6-20.7,255.6-20.7V412.5v-14.1v-70.7
	C742.9,327.8,734.3,319.4,618.1,270.1z"/>
</svg>
