<svg xmlns="http://www.w3.org/2000/svg" xmlns:xlink="http://www.w3.org/1999/xlink" width="108.246" height="105.873" viewBox="0 0 108.246 105.873"><defs><clipPath id="a"><rect width="108.246" height="105.873" fill="#fff"/></clipPath></defs><g clip-path="url(#a)"><path d="M33.32,36.172a4.075,4.075,0,0,1-.386,2.06,4.379,4.379,0,0,1-2.2,2.281,5.473,5.473,0,0,1-3.294.477,12.728,12.728,0,0,1-1.282-.3l-.5-.132c-.268-.07-.533-.147-.782-.228-.316-.107-.632-.22-.948-.331l-.518-.18L23.36,39.8l.029-.055c.092-.151.195-.294.3-.448l.114-.162a29.675,29.675,0,0,0,2.358-4.224c.378-.786.746-1.554,1.105-2.325q.4-.854.786-1.715c.246-.536.5-1.076.742-1.616.1-.217.209-.43.316-.646.084-.165.169-.334.25-.507a1.639,1.639,0,0,0,.1-.261l.04-.121a.539.539,0,0,1,.143.132A16.622,16.622,0,0,1,32.439,32.2a14.876,14.876,0,0,1,.8,2.861,4.319,4.319,0,0,1,.062.738c0,.121.007.242.015.371M15.849,41.281a.914.914,0,0,1-.147.04c-.162.033-.327.066-.488.1-.235.044-.47.088-.7.143a6.016,6.016,0,0,1-2.141.044,5.113,5.113,0,0,1-.911-.235l-.033-.011-.051-.022s.011-.022.044-.048a1.249,1.249,0,0,1,.727-.349H13.1a6.1,6.1,0,0,1,1.873.187,2.88,2.88,0,0,0,.481.084c.088.011.173.018.257.033a1.03,1.03,0,0,1,.136.037M37.32,36.925a13.454,13.454,0,0,0-.533-4.672,17.827,17.827,0,0,0-1.058-2.659,17.248,17.248,0,0,0-2.141-3.265c-.488-.6-1.025-1.172-1.543-1.723-.173-.187-.349-.375-.522-.562-.04-.044-.136-.147-.147-.162a1.4,1.4,0,0,1,.129-.209c.4-.61.826-1.238,1.186-1.891a1.8,1.8,0,0,0-.264-2.218,2.8,2.8,0,0,0-.635-.452,1.545,1.545,0,0,0-1.458-.062,2.884,2.884,0,0,0-1.285,1.117c-.176.29-.364.573-.547.856l-.143.22-.048.066a.4.4,0,0,1-.073-.037l-.107-.077c-.062-.044-.121-.084-.187-.125l-.327-.191c-.331-.195-.657-.386-.988-.569-.14-.077-.275-.154-.411-.231-.477-.264-.97-.544-1.476-.779-1.072-.5-2.182-.966-3.136-1.363a14.694,14.694,0,0,0-1.487-.518c-.621-.187-1.256-.342-1.847-.485a5.611,5.611,0,0,0-2.483-.04,5.805,5.805,0,0,0-2.182.881,3.191,3.191,0,0,0-1.546,3.052,11.736,11.736,0,0,0,.242,1.557,8.4,8.4,0,0,0,1.429,3.122,13.285,13.285,0,0,0,3.228,3.181c.286.2.584.389.874.569.239.151.485.3.72.463a5.91,5.91,0,0,0,1.528.727,1.922,1.922,0,0,0,2.2-.61,1.95,1.95,0,0,0,.485-1.469,1.788,1.788,0,0,0-.713-1.23,5.8,5.8,0,0,0-1.01-.613,10.734,10.734,0,0,1-2.273-1.4,7.268,7.268,0,0,1-2.207-2.71,4.692,4.692,0,0,1-.466-1.8c0-.408.151-.591.536-.632a2.337,2.337,0,0,1,.786.04,8.558,8.558,0,0,1,.841.268c.158.055.316.11.474.162a19.615,19.615,0,0,1,2.879,1.26,27.179,27.179,0,0,1,4.661,3.026,1.631,1.631,0,0,1,.154.132c-.015.04-.051.121-.07.165q-.441.981-.889,1.954l-.3.661c-.257.555-.511,1.113-.768,1.667l-.463,1c-.125.268-.246.536-.367.8-.279.617-.569,1.252-.867,1.869-.338.705-.7,1.414-1.054,2.1l-.118.228A17.508,17.508,0,0,1,19.6,38.236c-.125.154-.147.154-.3.1s-.3-.1-.452-.154c-.213-.077-.437-.154-.665-.224-.551-.169-1.117-.323-1.686-.481a1.172,1.172,0,0,0-.264-.037l-.1-.011-.195-.018a1.913,1.913,0,0,1-.342-.048,8.176,8.176,0,0,0-2.053-.228c-.143,0-.272,0-.393-.007a5.965,5.965,0,0,0-2.986.558A5.442,5.442,0,0,0,8.4,38.824a3.284,3.284,0,0,0-.481.654,4.124,4.124,0,0,0-.4,2.406A2.137,2.137,0,0,0,8.195,43.3a4.773,4.773,0,0,0,1.495.97,5.891,5.891,0,0,0,1.484.382l.261.04a9.181,9.181,0,0,0,1.238.143c.195.007.382.007.569.007a12.788,12.788,0,0,0,4.047-.569l.04-.011a12.094,12.094,0,0,0,1.407-.529c.492-.235.966-.518,1.425-.79l.18-.107a.4.4,0,0,1,.375-.07l.94.356c.29.11.577.22.867.327.1.04.206.077.3.118a9.61,9.61,0,0,0,.933.32c.272.07.54.143.808.22a23.626,23.626,0,0,0,2.34.562,7.623,7.623,0,0,0,2.916.011c.154-.033.309-.055.47-.077.118-.018.231-.033.349-.055a2.608,2.608,0,0,0,.444-.11c.4-.154.826-.32,1.241-.5a8,8,0,0,0,2.666-1.873,8.344,8.344,0,0,0,1.9-3.092,7.263,7.263,0,0,0,.43-2.049" transform="translate(20.059 44.833)" fill="#fff"/><path d="M43.252,12.411a5.816,5.816,0,0,1-.3,2.273,10.067,10.067,0,0,1-1.263,2.494c-.257.371-.533.735-.808,1.094.11-.286.213-.562.312-.837.147-.411.29-.826.437-1.241.151-.433.3-.867.459-1.3.176-.481.364-1,.569-1.5.132-.323.283-.65.43-.966.051-.107.1-.217.151-.327,0,.059.007.118.007.176l.007.132M27.834,25.441a.851.851,0,0,0-.731.441,4.015,4.015,0,0,0-.345.962,3.7,3.7,0,0,0-.022,1,2.008,2.008,0,0,1-.514,1.487,5.335,5.335,0,0,1-2.064,1.539,1.521,1.521,0,0,1-1.862-.58,1.94,1.94,0,0,1-.235-.646,5.918,5.918,0,0,1-.081-.69l-.022-.272a7.175,7.175,0,0,1,.514-2.277,4.056,4.056,0,0,1,1.936-2.145,3.542,3.542,0,0,1,2.115-.29,1.1,1.1,0,0,1,.87.6c.077.154.154.3.231.455s.14.272.209.411M46.1,12.12a2.9,2.9,0,0,0-.22-.808,2.66,2.66,0,0,0-.793-1.094,3.233,3.233,0,0,0-1.326-.562,2.408,2.408,0,0,0-1.818.264,3.407,3.407,0,0,0-1.2,1.238,8.2,8.2,0,0,0-.771,1.546c-.14.419-.3.841-.466,1.245l-.187.477-.132.338c-.04.107-.084.213-.125.323-.066.173-.129.345-.191.518-.129.342-.253.687-.386,1.025-.1.25-.206.5-.309.746-.121.29-.242.58-.36.874-.14.375-.275.753-.4,1.124l-.176.5-.022.066c-.081.217-.158.437-.242.654-.136.356-.279.709-.419,1.061l-.261.661c-.048.121-.1.242-.14.364-.1.261-.206.533-.32.79a1.029,1.029,0,0,1-.253.323c-.228.209-.47.419-.709.617l-.125.107c-.158.132-.316.268-.47.4-.367.316-.749.643-1.135.937-.356.268-.738.522-1.105.768-.217.143-.433.29-.646.437a3.633,3.633,0,0,0-1,.926,1.081,1.081,0,0,1-.415.309.219.219,0,0,1-.206.015.27.27,0,0,1-.132-.213c0-.044,0-.1,0-.162v-.073l0-.217a2.461,2.461,0,0,0-.3-1.48l.026-.011a3.1,3.1,0,0,0,.5-.22,1.372,1.372,0,0,0,.668-1.4,2.539,2.539,0,0,0-.349-1A3.854,3.854,0,0,0,27.717,21.8a8.949,8.949,0,0,0-1.609-.235l-.176-.015a4.762,4.762,0,0,0-1.726.242c-.136.037-.272.073-.408.107a5.32,5.32,0,0,0-1.785.926,6.433,6.433,0,0,0-1.734,1.866,7.73,7.73,0,0,0-1.047,2.6,6.2,6.2,0,0,0,.294,3.97,4.165,4.165,0,0,0,1.807,2,3.365,3.365,0,0,0,1.12.422c.107.015.217.033.323.048a5.4,5.4,0,0,0,1.065.1,5.467,5.467,0,0,0,2.714-.937,7.352,7.352,0,0,0,1.91-1.73c.062-.088.1-.1.158-.107a7.36,7.36,0,0,0,.834-.07,5.362,5.362,0,0,0,1.98-.65c.286-.176.569-.36.845-.54.22-.147.441-.294.668-.433a6.1,6.1,0,0,0,1.072-.826l-.033.1c-.033.1-.07.195-.1.29s-.062.165-.092.246l-.213.628c-.121.353-.239.709-.36,1.061-.084.239-.173.474-.257.713-.059.162-.121.327-.176.488L31.8,34.858c-.055.162-.114.323-.169.485-.121.353-.246.713-.389,1.058l-.022.059a14.607,14.607,0,0,0-.687,1.9,3.917,3.917,0,0,0,.051,2.42,2.274,2.274,0,0,0,1.8,1.528,3.139,3.139,0,0,0,.617.062,3.637,3.637,0,0,0,1.484-.338,5.2,5.2,0,0,0,1.693-1.263,10.324,10.324,0,0,0,1.8-2.729l.143-.309a8.907,8.907,0,0,0,.533-1.311c.228-.793.422-1.609.61-2.395.062-.264.125-.529.191-.79a1.242,1.242,0,0,0,.029-.246l0-.092c.011-.1.018-.206.029-.309.022-.231.048-.474.051-.716a.687.687,0,0,1,.371-.613,12.263,12.263,0,0,0,1.495-1.186c.283-.253.58-.514.881-.753a2.583,2.583,0,0,0,.845-1.447,1.015,1.015,0,0,0-.228-.955,1.09,1.09,0,0,0-.955-.331,2.72,2.72,0,0,0-1.333.595c-.466.367-.944.731-1.41,1.083-.272.209-.547.415-.819.624-.345.264-.683.533-1.025.8l-.125.1a1.439,1.439,0,0,0-.533,1.036l-.04.4c-.055.514-.114,1.043-.129,1.568a5.444,5.444,0,0,1-.242,1.263c-.044.158-.088.312-.132.488a4.737,4.737,0,0,1-.209.727c-.158.4-.334.8-.5,1.183l-.143.327a6.275,6.275,0,0,1-1.55,2.193,1.253,1.253,0,0,1-.514.3,4.719,4.719,0,0,1,.173-.6c.118-.3.239-.591.36-.889.132-.32.264-.635.389-.959q.325-.843.646-1.689l.29-.771c.1-.261.2-.525.3-.786s.206-.525.3-.79l1.006-2.648c.088-.22.173-.444.253-.665.121-.345.242-.687.367-1.032.151-.43.3-.859.459-1.289.1-.264.195-.525.3-.786.121-.316.242-.632.356-.951a1.11,1.11,0,0,1,.316-.492c.312-.275.628-.555.937-.837a36.058,36.058,0,0,0,2.6-2.7,8.924,8.924,0,0,0,.65-.856c.253-.367.5-.735.746-1.105.118-.173.235-.349.353-.525.059-.088.121-.173.18-.261a7.36,7.36,0,0,0,.408-.628c.224-.4.422-.819.654-1.311.081-.18.154-.364.224-.54.055-.132.107-.268.165-.4a5.519,5.519,0,0,0,.342-1.355l.029-.173A7.777,7.777,0,0,0,46.1,12.12" transform="translate(50.909 25.613)" fill="#fff"/><path d="M35.254,23.116c0-.1-.007-.187,0-.283a5.144,5.144,0,0,0-.389-2.222A6.641,6.641,0,0,0,33.105,18.2a5.868,5.868,0,0,0-2.934-1.425,5.419,5.419,0,0,0-3.676.731,8.833,8.833,0,0,0-2.934,2.8,29.489,29.489,0,0,0-2.365,4.249c-.345.738-.665,1.506-.97,2.244l-.165.4c-.242.577-.426,1.061-.591,1.524-.176.507-.342,1.028-.507,1.535l-.195.6c-.059.184-.114.367-.169.551-.048.147-.1.29-.136.433l-.231.713c-.187.569-.378,1.161-.558,1.745-.088.3-.169.6-.246.892s-.151.562-.239.841c-.073.239-.154.474-.231.709s-.173.5-.25.76c-.151.507-.345,1.175-.507,1.862-.184.757-.345,1.532-.5,2.281l0,.026a2.4,2.4,0,0,0-.037.6A1.887,1.887,0,0,0,17.1,43.988a1.737,1.737,0,0,0,1.913-.775,4.359,4.359,0,0,0,.584-1.5l.2-.8c.184-.713.356-1.421.547-2.13.073-.29.165-.588.253-.87.062-.2.129-.4.187-.606.081-.294.165-.591.246-.885.136-.488.272-.992.43-1.484.36-1.172.746-2.417,1.168-3.636.452-1.3.826-2.281,1.208-3.188.474-1.117,1.006-2.237,1.521-3.316l.125-.253A12.19,12.19,0,0,1,27.009,22.1a5.119,5.119,0,0,1,1.429-1.3,1.557,1.557,0,0,1,1.146-.217,2.425,2.425,0,0,1,1.708,2.31c-.011.18-.022.371-.026.6a11.45,11.45,0,0,1-1.172,4.841,10.463,10.463,0,0,1-1.476,2.215,10.181,10.181,0,0,1-3.144,2.446,8.026,8.026,0,0,0-1.065.676,1.783,1.783,0,0,0-.566,2.384c.286.441.6.874.907,1.293l.092.132c.444.61.889,1.219,1.341,1.829l.584.786c.316.437.635.874.966,1.307.5.679,1.01,1.363,1.521,2.042l.129.169c.3.4.61.812.929,1.208a1.855,1.855,0,0,0,1.072.643,1.835,1.835,0,0,0,.43.048,2.255,2.255,0,0,0,1.943-1.131,1.4,1.4,0,0,0,.136-.676,1.9,1.9,0,0,0-.455-1.142c-.411-.529-.834-1.08-1.26-1.634-.529-.7-1.061-1.4-1.587-2.1L29.4,37.245c-.154-.2-.309-.4-.466-.6-.206-.268-.411-.536-.606-.808l-.051-.073.062-.04A13.509,13.509,0,0,0,30.8,33.8a13.651,13.651,0,0,0,2.883-3.941,11.768,11.768,0,0,0,.918-2.336c.037-.154.088-.3.136-.466a5.008,5.008,0,0,0,.195-.76c.026-.195.062-.389.092-.584a11.814,11.814,0,0,0,.235-2.457Z" transform="translate(41.844 44.634)" fill="#fff"/><path d="M5.559,10.52A2.483,2.483,0,0,1,6.7,8.125a6.5,6.5,0,0,1,1.77-.852,19.987,19.987,0,0,1,3.372-.735l.492-.077L13.378,6.3q.9-.138,1.8-.286l.492-.081c.606-.1,1.238-.2,1.844-.338.213-.048.426-.077.632-.107a3.728,3.728,0,0,0,1.047-.246,1.121,1.121,0,0,1,.345-.073l.125-.011A1.987,1.987,0,0,0,20.393,5a.977.977,0,0,1,.375-.077h.026a.591.591,0,0,0,.375-.11.627.627,0,0,1,.242-.121c.114-.033.231-.066.345-.1.191-.051.382-.1.573-.165a1.1,1.1,0,0,0,.239-.129.592.592,0,0,1,.29-.114c.077-.037.154-.077.235-.121.808-.433,1.26-.676,1.792-.316a1.985,1.985,0,0,1,.984.929,1.143,1.143,0,0,1,0,1.1c-.312.6-.628,1.2-.944,1.8-.151.283-.3.566-.455.848-.323.595-.657,1.212-.962,1.829-.356.716-.694,1.462-1.021,2.185-.11.25-.224.5-.338.749-.2.426-.389.848-.584,1.274-.275.6-.547,1.2-.826,1.8-.092.2-.184.4-.275.6-.3.657-.617,1.337-.966,1.991-.753,1.407-1.546,2.828-2.314,4.2l-.422.757c-.176.312-.36.621-.54.915-.129.209-.257.422-.378.632a6.139,6.139,0,0,1-.966,1.2,1.569,1.569,0,0,1-1.139.481,1.71,1.71,0,0,1-.426-.051,1.758,1.758,0,0,1-1.274-1.19,1.619,1.619,0,0,1,.2-1.307c.323-.533.657-1.065.992-1.594.452-.724.922-1.473,1.363-2.218.485-.823.933-1.686,1.366-2.519l.217-.415c.283-.54.577-1.135.926-1.877.415-.885.845-1.829,1.311-2.879.14-.312.272-.624.4-.94.118-.279.231-.558.353-.837.286-.65.6-1.348.966-2.138.129-.283.264-.562.4-.845.084-.18.173-.36.257-.54l-.077.033-.084.033a1.481,1.481,0,0,1-.228.084c-.345.081-.713.165-1.091.239l-.242.051c-.775.158-1.579.32-2.373.466-.316.059-.632.107-.951.154-.3.048-.595.1-.892.147-.5.092-.988.187-1.48.286l-.863.165c-.184.037-.371.07-.562.1-.371.066-.757.132-1.124.224-.422.107-.852.239-1.267.371-.147.048-.294.092-.441.14a.407.407,0,0,0-.107.062c-.088.066-.1.1-.1.1s0,.026.059.081a2.96,2.96,0,0,0,.661.544c.386.2.8.382,1.2.558l.389.169c.132.062.272.118.408.173.235.1.474.2.709.316a3.279,3.279,0,0,1,.738.5,1.392,1.392,0,0,1,.195,1.825,1.84,1.84,0,0,1-1.994.742,13.067,13.067,0,0,1-2.868-1.238,16.038,16.038,0,0,1-1.517-1.072,3.162,3.162,0,0,1-1.139-1.7c-.018-.077-.044-.151-.066-.224a2.8,2.8,0,0,1-.125-.5" transform="translate(14.806 9.559)" fill="#fff"/><path d="M30.455,21.157l.015-.026.011-.011c.081-.118.162-.235.239-.356a5.834,5.834,0,0,1,.922-1.153,4.018,4.018,0,0,1,2.3-1.153l.1-.015.073-.007.084-.007.143,0,.062.015a2.717,2.717,0,0,1,.452.147.355.355,0,0,1,.2.2.361.361,0,0,1-.048.294,1.877,1.877,0,0,1-.617.676,8.3,8.3,0,0,1-2.3.988c-.231.062-.466.125-.7.191l-.566.154-.044.011a1.071,1.071,0,0,1-.253.051l-.07,0m-10.64-8.3.033-.066c.18-.371.364-.753.533-1.135.18-.4.353-.812.525-1.219.184-.441.378-.9.577-1.341.338-.749.694-1.495,1.069-2.222a3.173,3.173,0,0,1,.437-.595L23,6.272c-.007.051-.011.107-.015.162a5.114,5.114,0,0,1-.125.874,10.887,10.887,0,0,1-1.19,2.85,27.86,27.86,0,0,1-1.855,2.7m21.357,9.05h0a1.807,1.807,0,0,0-1.98.132c-1.1.735-2.035,1.319-2.949,1.833A11.864,11.864,0,0,1,34,24.9a5.4,5.4,0,0,1-1.987.312l-.059,0a3.324,3.324,0,0,1-1.238-.231,1.406,1.406,0,0,1-.764-.834l-.007-.029.037-.007h.029a.485.485,0,0,0,.11-.011c.173-.026.345-.048.522-.073a11.352,11.352,0,0,0,1.238-.217,21,21,0,0,0,2.237-.69,7.882,7.882,0,0,0,2.409-1.355A3.708,3.708,0,0,0,38,18.531a2.791,2.791,0,0,0-1.157-2.119,3.973,3.973,0,0,0-1.535-.665,5.629,5.629,0,0,0-3.269.239,6.665,6.665,0,0,0-1.491.771,8.5,8.5,0,0,0-1.407,1.135,8.322,8.322,0,0,0-1.888,3.291.773.773,0,0,0-.033.191l-.011.073-.044.231a4.607,4.607,0,0,1-.125.547.578.578,0,0,1-.2.261,29.3,29.3,0,0,1-3.61,2.306,1.191,1.191,0,0,0-.118.062l.062-.114c.1-.184.206-.371.3-.558.162-.309.316-.621.47-.929.286-.573.584-1.164.9-1.737.154-.286.32-.569.485-.848a15.8,15.8,0,0,0,1-1.9,3.062,3.062,0,0,0,.2-1.807l-.007-.033a.589.589,0,0,0-.084-.253,1.787,1.787,0,0,0-2.027-.863,4.872,4.872,0,0,0-1.5.793c-.386.29-.764.584-1.146.881-.209.165-.422.331-.635.5l-2.193,1.7-.881.683c-.3.239-.61.474-.915.713-.338.264-.672.529-1.006.79l-.544.43.081-.176a6.09,6.09,0,0,0,.294-.69,2.924,2.924,0,0,1,.863-1.252c.525-.47,1-.9,1.44-1.377,1.01-1.094,1.991-2.2,3.074-3.423.378-.426.735-.863,1.058-1.3.536-.72.988-1.359,1.385-1.954a22.037,22.037,0,0,0,1.175-1.9A10.049,10.049,0,0,0,25.7,8.288a7.112,7.112,0,0,0,.323-2.424,3.333,3.333,0,0,0-.665-1.814,2.345,2.345,0,0,0-1.7-.922,3.7,3.7,0,0,0-1.73.32,2.509,2.509,0,0,0-1.271.984l-.235.367c-.294.455-.595.926-.856,1.41-.323.6-.624,1.227-.911,1.833-.1.195-.187.393-.283.588l-.081.165c-.253.529-.518,1.076-.76,1.62q-.419.948-.826,1.906c-.165.386-.334.775-.5,1.164-.121.283-.246.562-.371.845q-.3.667-.584,1.333-.215.512-.419,1.025c-.136.342-.272.679-.415,1.017l-.051.125a1.919,1.919,0,0,1-.386.665c-.9.87-1.91,1.675-2.8,2.384-.209.165-.426.323-.639.485s-.426.309-.632.474a1.374,1.374,0,0,0-.187,2.035,1.525,1.525,0,0,0,2.1.158l.018-.011q-.05.121-.11.242c-.059.132-.125.272-.176.415l-.033.092c-.187.5-.378,1.025-.536,1.55a1.45,1.45,0,0,0,.555,1.587,1.252,1.252,0,0,0,1.561.121l.07-.04a2.36,2.36,0,0,0,.272-.184c.231-.187.463-.375.694-.566.253-.2.5-.408.757-.61.525-.422,1.058-.841,1.587-1.26.646-.511,1.289-1.025,1.932-1.535q.634-.507,1.26-1.025l.485-.393q.793-.645,1.59-1.289c-.077.136-.154.275-.224.415-.151.3-.29.61-.43.907l-.118.253c-.11.246-.224.488-.338.731-.268.569-.544,1.161-.793,1.752a2.333,2.333,0,0,0-.059,1.756,1.98,1.98,0,0,0,1.84,1.326,2.091,2.091,0,0,0,.334-.029,7.645,7.645,0,0,0,1.44-.4c.5-.195.992-.441,1.462-.676l.239-.118c.4-.2.782-.422,1.105-.613s.621-.378.948-.584l.257-.158.07.1c.048.07.1.147.147.22.11.165.224.338.356.5A4.785,4.785,0,0,0,31.1,28.1a7.974,7.974,0,0,0,3.151-.268,14.009,14.009,0,0,0,1.708-.6l.114-.048A17.255,17.255,0,0,0,39.108,25.6a14.66,14.66,0,0,0,1.943-1.443,3.078,3.078,0,0,0,.613-.746,1.083,1.083,0,0,0-.492-1.5" transform="translate(24.981 8.32)" fill="#fff"/><path d="M56.325,90.27a2.179,2.179,0,0,0-2.2-2.156C26.708,88.115,4.4,66.3,4.4,39.488A48.06,48.06,0,0,1,15.756,8.556a2.124,2.124,0,0,0-.294-3.034,2.24,2.24,0,0,0-3.1.294,52.088,52.088,0,0,0,3.493,71.1,54.4,54.4,0,0,0,38.27,15.506,2.179,2.179,0,0,0,2.2-2.156" transform="translate(0 13.447)" fill="#fff"/><path d="M68.721,93.849a2.22,2.22,0,0,1-1.682-.76,2.122,2.122,0,0,1,.257-3.037A48.144,48.144,0,0,0,84.889,52.935c0-26.814-22.3-48.627-49.718-48.627a50.566,50.566,0,0,0-24.78,6.46,2.229,2.229,0,0,1-3.008-.793A2.131,2.131,0,0,1,8.2,7.033,55.049,55.049,0,0,1,35.171,0a54.379,54.379,0,0,1,38.27,15.5A52.011,52.011,0,0,1,89.3,52.935a52.4,52.4,0,0,1-19.153,40.4,2.222,2.222,0,0,1-1.421.511" transform="translate(18.95 0)" fill="#fff"/><path d="M18.5,34.725c.455-.132,1.2-.382,1.884-.584,1.458-.422,2.38-.54,2.575-.6.176-.051-.007-1.2-.07-1.4s-1.109.011-1.554.14a14.144,14.144,0,0,0-1.789.705l-.029-.026c1.146-1.131,2.733-2.854,2.2-4.631a2.511,2.511,0,0,0-3.316-1.568A2.623,2.623,0,0,0,16.439,30c.283.937.97,1.374,1.135,1.326.14-.04,1-.881.951-1.039a.391.391,0,0,0-.107-.154,1.61,1.61,0,0,1-.364-.657,1.046,1.046,0,0,1,.764-1.381.954.954,0,0,1,1.234.753c.433,1.344-1.734,3.419-2.439,4.841a.188.188,0,0,0-.026.158c.04.129.775.918.907.881" transform="translate(43.662 71.145)" fill="#fff"/><path d="M20.679,32.739a.2.2,0,0,1,.022-.158c.709-1.421,2.872-3.5,2.442-4.841a.954.954,0,0,0-1.234-.753,1.047,1.047,0,0,0-.764,1.381,1.546,1.546,0,0,0,.364.657.433.433,0,0,1,.107.154c.048.158-.812,1-.951,1.039-.165.048-.852-.389-1.135-1.322a2.622,2.622,0,0,1,1.954-3.243A2.513,2.513,0,0,1,24.8,27.223c.536,1.778-1.05,3.5-2.2,4.635l.033.022a14.144,14.144,0,0,1,1.789-.705c.444-.129,1.491-.342,1.554-.14s.242,1.355.07,1.4c-.195.059-1.12.176-2.578.6-.683.2-1.425.448-1.88.58-.132.04-.867-.753-.907-.881" transform="translate(51.92 68.194)" fill="#fff"/><path d="M22.274,32.338c-.87.4-1.723-.43-2.325-1.686-.588-1.227-.8-2.56.143-3,.9-.415,1.7.393,2.3,1.638.639,1.337.826,2.611-.121,3.045m1.678-3.8c-.915-1.91-2.6-3.012-4.433-2.163-2.016.926-2.027,3.151-1.131,5.017.966,2.02,2.718,3,4.455,2.2,1.9-.874,2.1-2.979,1.109-5.057" transform="translate(47.625 69.723)" fill="#fff"/><path d="M12.743,25.428c.073-.1.143-.206.213-.309a5.338,5.338,0,0,1,.937-1.15,3.8,3.8,0,0,1,2.248-1.017,1.457,1.457,0,0,1,.841.162.374.374,0,0,1,.217.279l-.022.081a.557.557,0,0,1-.055.158,1.844,1.844,0,0,1-.61.617,7.722,7.722,0,0,1-2.16.834l-.114.026c-.356.084-.713.169-1.072.25a2.97,2.97,0,0,1-.415.07Zm33.444-8.2h0a1.782,1.782,0,0,0-1.554-.915c-.268,0-.547-.011-.815-.022-.114,0-.231-.011-.342-.015l-.059,0,.026-.055.044-.077a1.484,1.484,0,0,0,.1-.2c.206-.529.415-1.061.617-1.59L44.34,14c.176-.463.36-.937.522-1.414a5.407,5.407,0,0,0,.22-1,1.144,1.144,0,0,0-.316-.9,1.525,1.525,0,0,0-1.01-.555,1.339,1.339,0,0,0-1.274.749,4.02,4.02,0,0,0-.272.639c-.033.092-.062.18-.1.268-.129.334-.261.672-.386,1.01-.092.231-.18.463-.268.694-.1.261-.195.518-.294.775-.077.2-.154.4-.235.6-.132.338-.268.679-.393,1.017-.1.268-.1.272-.378.257l-.617-.033c-.419-.018-.837-.04-1.256-.059a2.106,2.106,0,0,0-.522.026,1.444,1.444,0,0,0-1.1.837,1.36,1.36,0,0,0,.206,1.311,1.563,1.563,0,0,0,1.142.643c.323.029.65.04.966.055l.316.011.018,0v0c-.011.04-.022.081-.029.121-.022.081-.04.162-.07.239l-.184.5c-.239.654-.488,1.33-.746,1.987a2.928,2.928,0,0,1-.951,1.311c-.716.536-1.469,1.087-2.237,1.642-.29.209-.584.411-.878.617s-.595.411-.885.624c-.2.14-.382.294-.562.441-.081.066-.162.129-.242.195l-.044.04c-.044.037-.088.073-.136.107-.624.393-1.252.786-1.877,1.172a.69.69,0,0,0,.048-.147c.022-.136.048-.268.073-.4a7.483,7.483,0,0,0,.165-1.223A16.486,16.486,0,0,0,30.67,24.2l0-.033A18.853,18.853,0,0,1,30.6,21.7a6.916,6.916,0,0,1,.356-1.98c.066-.191.14-.382.209-.569.092-.242.184-.481.264-.724a1.429,1.429,0,0,0-.3-1.5,1.447,1.447,0,0,0-1.421-.518,1.469,1.469,0,0,0-1.054.874c-.092.209-.169.426-.239.639l-.022.059c-.044.129-.084.264-.121.4a4.084,4.084,0,0,1-.246.687,12.647,12.647,0,0,1-1.7,2.6c-.176.2-.356.408-.533.613-.551.639-1.12,1.3-1.708,1.921a10.946,10.946,0,0,1-1.043.929c-.129.107-.257.217-.386.323s-.268.235-.4.356a6.133,6.133,0,0,1-1.058.826c-.349.2-.69.4-1.036.606-.6.356-1.219.727-1.851,1.05a10.381,10.381,0,0,1-1.833.768,3.311,3.311,0,0,1-.342.081c-.162.037-.331.073-.5.129a3.558,3.558,0,0,1-1.374.107c-.088,0-.173-.011-.257-.011a2.558,2.558,0,0,1-.981-.246,1.408,1.408,0,0,1-.735-.768l-.037-.1c.026,0,.062-.011.118-.015.11-.011.224-.022.338-.029a11.8,11.8,0,0,0,1.333-.165c.6-.121,1.2-.29,1.77-.452l.286-.081a4.92,4.92,0,0,0,.606-.224l.158-.066a6,6,0,0,0,2.259-1.473,3.422,3.422,0,0,0,.694-1.043,3.8,3.8,0,0,0,.2-1.587,2.583,2.583,0,0,0-.753-1.7,3.828,3.828,0,0,0-2.244-1.124,5.707,5.707,0,0,0-3.779.635,6.829,6.829,0,0,0-2.479,2.149,6.757,6.757,0,0,0-.918,1.8,1.253,1.253,0,0,1-.639.9,1.441,1.441,0,0,0-.268.162l-.088.059a2.043,2.043,0,0,0-.746.764,1.254,1.254,0,0,0-.055.973,1.025,1.025,0,0,0,.588.566,3.744,3.744,0,0,0,.69.191c.092.015.092.018.107.066a2.278,2.278,0,0,0,.084.253,1.8,1.8,0,0,1,.084.275,3.136,3.136,0,0,0,.738,1.4,4.857,4.857,0,0,0,3.188,1.678,5.331,5.331,0,0,0,.867.066,10.175,10.175,0,0,0,1.359-.11,11.123,11.123,0,0,0,2.152-.558,19.818,19.818,0,0,0,2.152-.951l.088-.04a13.329,13.329,0,0,0,2.633-1.686,2.775,2.775,0,0,1,.323-.224l.11-.066c.107-.066.213-.129.32-.191a6.315,6.315,0,0,0,.668-.437,24.115,24.115,0,0,0,2.953-2.957,4.581,4.581,0,0,0,.3-.375c.055-.073.114-.147.165-.217l.015.36c.007.275.018.555.022.83l.011.246a2.226,2.226,0,0,1-.018.591,9.245,9.245,0,0,1-.529,1.678,2.481,2.481,0,0,1-1.352,1.352,1.069,1.069,0,0,1-.881-.029c-.162-.077-.323-.173-.459-.25a1.4,1.4,0,0,0-1.656.1,1.27,1.27,0,0,0-.488.907,1.132,1.132,0,0,0,.327.892,2.449,2.449,0,0,0,.621.477,6.886,6.886,0,0,0,1.01.378,4.3,4.3,0,0,0,1.675.22c.455-.04.826-.088,1.172-.151l.187-.033a9.6,9.6,0,0,0,1.263-.279c.665-.217,1.318-.481,1.954-.735l.055-.026a15.919,15.919,0,0,0,2.935-1.55l.246-.165c.356-.235.72-.477,1.091-.69A14.1,14.1,0,0,0,36.19,27.7a4.974,4.974,0,0,0-.426,1.146l-.015.066a4.989,4.989,0,0,0-.14,1.05,2.047,2.047,0,0,0,.713,1.535,1.665,1.665,0,0,0,1.161.477,4.773,4.773,0,0,0,1.1-.158,7.843,7.843,0,0,0,1.576-.6,14.393,14.393,0,0,0,3.07-2.031,10.507,10.507,0,0,0,.9-.955l.055-.059a.854.854,0,0,0,.114-.9,1.871,1.871,0,0,0-.246-.492,1.351,1.351,0,0,0-1.623-.54,3.016,3.016,0,0,0-.705.4c-.518.393-1.014.8-1.385,1.105a7.539,7.539,0,0,1-1.653,1.117l-.07.037-.088.04.022-.044.018-.033a3.461,3.461,0,0,0,.176-.371c.1-.261.2-.522.3-.782.066-.176.136-.356.206-.533.114-.29.228-.58.345-.874.14-.36.283-.716.422-1.08.257-.657.507-1.319.757-1.98l.026-.07c.132-.345.261-.694.389-1.039.162-.433.323-.863.488-1.293.11-.286.224-.569.338-.856s.22-.547.327-.819c.033-.092.055-.11.18-.1.481.029,1.01.051,1.612.07.356.007.705,0,1.047-.011a1.273,1.273,0,0,0,1-1.891" transform="translate(21.318 27.084)" fill="#fff"/><path d="M20.258,28.056a5.173,5.173,0,0,1-2.96,3.511,9.211,9.211,0,0,1-2.365.885,11.676,11.676,0,0,1-2.538.323c-.055,0-.11,0-.162,0-.61-.011-1.216-.077-1.8-.143l-.349-.04a6.923,6.923,0,0,1-1.917-.551A1.49,1.49,0,0,1,7.2,30.7a1.465,1.465,0,0,1,.83-1.436,1.711,1.711,0,0,1,1.2-.165c.272.066.547.125.823.18l.345.073.062.011.294.015a16.7,16.7,0,0,0,2.938,0,5,5,0,0,0,2.45-.845,2.16,2.16,0,0,0,.687-.713,1.239,1.239,0,0,0-.25-1.579,2.289,2.289,0,0,0-.885-.525c-.151-.051-.294-.11-.433-.173-.084-.037-.173-.073-.257-.107-.2-.077-.4-.154-.6-.228q-.573-.215-1.146-.441a3.9,3.9,0,0,1-.657-.345,1.658,1.658,0,0,1-.738-1.359,2.809,2.809,0,0,1,.892-2.229,4.7,4.7,0,0,1,1.311-.863c.264-.132.54-.253.808-.371.239-.1.474-.209.709-.32a6.723,6.723,0,0,0,1.9-1.267,3.084,3.084,0,0,0,.937-2.174,15.985,15.985,0,0,0-.07-1.774,2.1,2.1,0,0,0-.173-.635,1.389,1.389,0,0,0-1.267-.826,2.6,2.6,0,0,0-2.174.889,6.883,6.883,0,0,0-1.4,2.082c-.47,1-.856,1.836-1.234,2.688-.426.955-.841,1.913-1.256,2.876L10.4,22.158Q9.773,23.6,9.152,25.041l-.834,1.928q-.474,1.107-.955,2.211c-.4.9-.793,1.789-1.186,2.641a1.62,1.62,0,0,1-1.972.852A1.482,1.482,0,0,1,3.14,31.3a1.45,1.45,0,0,1,.1-.573c.14-.342.286-.683.433-1.025.114-.261.224-.522.334-.786.062-.147.121-.3.176-.452.073-.2.151-.4.242-.6.121-.279.253-.551.386-.823.114-.235.228-.47.334-.709q.286-.628.562-1.256c.187-.422.375-.841.566-1.26s.389-.845.584-1.267c.191-.4.378-.8.562-1.208.143-.312.279-.628.419-.944.125-.294.253-.588.386-.878.195-.422.389-.841.584-1.26.18-.386.36-.768.536-1.153.114-.25.224-.5.334-.746.151-.334.3-.679.463-1.017a12.53,12.53,0,0,1,1.142-1.913,10.389,10.389,0,0,1,1.105-1.333,9.106,9.106,0,0,1,1.465-1.117,5.415,5.415,0,0,1,1.374-.577l.345-.11a2.122,2.122,0,0,1,.547-.088,6.132,6.132,0,0,1,2.916.514,4.482,4.482,0,0,1,2.277,2.24A5.808,5.808,0,0,1,21.65,16.9a10,10,0,0,1-.474,1.451A6.777,6.777,0,0,1,19.256,20.8a10.674,10.674,0,0,1-2.343,1.447,3.74,3.74,0,0,1-.518.2l-.121.04.015,0,.037.011a8.243,8.243,0,0,1,1.8.83,4.494,4.494,0,0,1,1.723,1.708,4.228,4.228,0,0,1,.408,3.019" transform="translate(8.389 27.233)" fill="#fff"/><path d="M22.719,32.279a.173.173,0,0,1,.007-.158c.58-1.476,2.556-3.735,2.009-5.039a.957.957,0,0,0-1.3-.639,1.044,1.044,0,0,0-.643,1.44,1.591,1.591,0,0,0,.422.624.4.4,0,0,1,.118.143c.062.158-.72,1.069-.856,1.12-.158.062-.881-.312-1.245-1.219a2.625,2.625,0,0,1,1.664-3.4,2.51,2.51,0,0,1,3.438,1.274c.694,1.723-.735,3.577-1.781,4.808l.033.022a13.375,13.375,0,0,1,1.719-.859c.43-.165,1.462-.47,1.539-.275s.356,1.33.191,1.392c-.191.073-1.1.272-2.512.823-.672.257-1.388.573-1.829.746-.129.048-.926-.676-.977-.8" transform="translate(56.295 66.601)" fill="#fff"/></g></svg>