<svg xmlns="http://www.w3.org/2000/svg" xmlns:xlink="http://www.w3.org/1999/xlink" width="73.009" height="71.409" viewBox="0 0 73.009 71.409"><defs><clipPath id="a"><rect width="73.009" height="71.409" fill="#155aaa"/></clipPath></defs><g transform="translate(0 0)"><g transform="translate(0 0)" clip-path="url(#a)"><path d="M24.917,29.858a2.748,2.748,0,0,1-.26,1.39,2.953,2.953,0,0,1-1.484,1.538,3.691,3.691,0,0,1-2.222.322,8.585,8.585,0,0,1-.865-.2l-.337-.089c-.181-.047-.359-.1-.528-.154-.213-.072-.426-.149-.639-.223l-.349-.121-.035-.012.02-.037c.062-.1.131-.2.206-.3l.077-.109a20.015,20.015,0,0,0,1.59-2.849c.255-.53.5-1.048.746-1.568q.268-.576.53-1.157c.166-.362.334-.726.5-1.09.069-.146.141-.29.213-.436.057-.111.114-.225.168-.342a1.1,1.1,0,0,0,.067-.176l.027-.082a.364.364,0,0,1,.1.089,11.211,11.211,0,0,1,1.883,2.933,10.033,10.033,0,0,1,.542,1.93,2.913,2.913,0,0,1,.042.5c0,.082,0,.163.01.25M13.133,33.3a.617.617,0,0,1-.1.027c-.109.022-.22.045-.329.064-.159.03-.317.059-.473.1a4.058,4.058,0,0,1-1.444.03,3.449,3.449,0,0,1-.614-.159l-.022-.007-.035-.015s.007-.015.03-.032a.842.842,0,0,1,.49-.235h.644a4.113,4.113,0,0,1,1.263.126,1.942,1.942,0,0,0,.325.057c.059.007.116.012.173.022a.694.694,0,0,1,.092.025m14.481-2.938a9.074,9.074,0,0,0-.359-3.151,12.024,12.024,0,0,0-.713-1.793,11.633,11.633,0,0,0-1.444-2.2c-.329-.4-.691-.79-1.04-1.162l-.352-.379c-.027-.03-.092-.1-.1-.109a.943.943,0,0,1,.087-.141c.272-.411.557-.835.8-1.276a1.212,1.212,0,0,0-.178-1.5,1.89,1.89,0,0,0-.429-.3,1.042,1.042,0,0,0-.983-.042,1.945,1.945,0,0,0-.867.753c-.119.2-.245.386-.369.577l-.1.149-.032.045a.269.269,0,0,1-.05-.025l-.072-.052c-.042-.03-.082-.057-.126-.084l-.22-.129c-.223-.131-.443-.26-.666-.384L20.126,19c-.322-.178-.654-.367-1-.525-.723-.337-1.471-.651-2.115-.919a9.911,9.911,0,0,0-1-.349c-.419-.126-.847-.23-1.246-.327a3.784,3.784,0,0,0-1.675-.027,3.915,3.915,0,0,0-1.471.595,2.152,2.152,0,0,0-1.043,2.059,7.916,7.916,0,0,0,.163,1.05,5.669,5.669,0,0,0,.964,2.106,8.961,8.961,0,0,0,2.177,2.145c.193.136.394.263.59.384.161.1.327.206.486.312a3.986,3.986,0,0,0,1.03.49,1.3,1.3,0,0,0,1.486-.411,1.315,1.315,0,0,0,.327-.991,1.206,1.206,0,0,0-.481-.83,3.915,3.915,0,0,0-.681-.414,7.24,7.24,0,0,1-1.533-.941,4.9,4.9,0,0,1-1.489-1.828,3.165,3.165,0,0,1-.315-1.214c0-.275.1-.4.362-.426a1.576,1.576,0,0,1,.53.027,5.772,5.772,0,0,1,.567.181c.107.037.213.074.32.109a13.23,13.23,0,0,1,1.942.85,18.331,18.331,0,0,1,3.143,2.041,1.1,1.1,0,0,1,.1.089c-.01.027-.035.082-.047.111q-.3.661-.6,1.318l-.2.446c-.173.374-.344.751-.518,1.125l-.312.676c-.084.181-.166.362-.248.54-.188.416-.384.845-.585,1.261-.228.476-.473.954-.711,1.414l-.079.154a11.809,11.809,0,0,1-1.308,1.967c-.084.1-.1.1-.206.067s-.2-.067-.3-.1c-.144-.052-.295-.1-.448-.151-.372-.114-.753-.218-1.137-.325a.79.79,0,0,0-.178-.025l-.069-.007-.131-.012a1.291,1.291,0,0,1-.23-.032,5.514,5.514,0,0,0-1.385-.154c-.1,0-.183,0-.265,0a4.023,4.023,0,0,0-2.014.377,3.67,3.67,0,0,0-1.182.768,2.215,2.215,0,0,0-.325.441,2.782,2.782,0,0,0-.268,1.623,1.441,1.441,0,0,0,.453.956,3.219,3.219,0,0,0,1.008.654,3.974,3.974,0,0,0,1,.258l.176.027a6.192,6.192,0,0,0,.835.1c.131,0,.258,0,.384,0a8.625,8.625,0,0,0,2.73-.384l.027-.007a8.157,8.157,0,0,0,.949-.357c.332-.159.651-.349.961-.533l.121-.072a.273.273,0,0,1,.253-.047l.634.24c.2.074.389.149.585.22.069.027.139.052.206.079a6.482,6.482,0,0,0,.629.216c.183.047.364.1.545.149a15.935,15.935,0,0,0,1.578.379,5.141,5.141,0,0,0,1.967.007c.1-.022.208-.037.317-.052.079-.012.156-.022.235-.037a1.759,1.759,0,0,0,.3-.074c.27-.1.557-.216.837-.337a5.4,5.4,0,0,0,1.8-1.263,5.628,5.628,0,0,0,1.278-2.086,4.9,4.9,0,0,0,.29-1.382" transform="translate(11.086 24.778)" fill="#155aaa"/><path d="M35.373,11.49a3.923,3.923,0,0,1-.2,1.533,6.79,6.79,0,0,1-.852,1.682c-.173.25-.359.5-.545.738.074-.193.144-.379.211-.565.1-.277.2-.557.295-.837s.206-.585.31-.877c.119-.325.245-.671.384-1.011.089-.218.191-.438.29-.651.035-.072.067-.146.1-.22,0,.04,0,.079,0,.119l0,.089m-10.4,8.789a.574.574,0,0,0-.493.3,2.708,2.708,0,0,0-.233.649,2.5,2.5,0,0,0-.015.676,1.354,1.354,0,0,1-.347,1,3.6,3.6,0,0,1-1.392,1.038,1.026,1.026,0,0,1-1.256-.391,1.308,1.308,0,0,1-.159-.436,3.992,3.992,0,0,1-.054-.466l-.015-.183a4.839,4.839,0,0,1,.347-1.536,2.736,2.736,0,0,1,1.305-1.447,2.389,2.389,0,0,1,1.427-.2.741.741,0,0,1,.587.406c.052.1.1.206.156.307s.094.183.141.277m12.319-8.985a1.956,1.956,0,0,0-.149-.545,1.794,1.794,0,0,0-.535-.738,2.181,2.181,0,0,0-.894-.379,1.624,1.624,0,0,0-1.226.178,2.3,2.3,0,0,0-.808.835,5.534,5.534,0,0,0-.52,1.043c-.094.282-.206.567-.315.84l-.126.322-.089.228c-.027.072-.057.144-.084.218-.045.116-.087.233-.129.349-.087.23-.171.463-.26.691-.067.168-.139.337-.208.5-.082.2-.163.391-.243.59-.094.253-.186.508-.272.758l-.119.339-.015.045c-.054.146-.107.295-.163.441-.092.24-.188.478-.282.716l-.176.446c-.032.082-.064.163-.094.245-.069.176-.139.359-.216.533a.694.694,0,0,1-.171.218c-.154.141-.317.282-.478.416l-.084.072c-.107.089-.213.181-.317.27-.248.213-.505.434-.765.632-.24.181-.5.352-.746.518-.146.1-.292.2-.436.295A2.45,2.45,0,0,0,26.7,22a.729.729,0,0,1-.28.208.148.148,0,0,1-.139.01.182.182,0,0,1-.089-.144c0-.03,0-.067,0-.109v-.05l0-.146a1.66,1.66,0,0,0-.2-1l.017-.007a2.092,2.092,0,0,0,.334-.149.925.925,0,0,0,.451-.946,1.712,1.712,0,0,0-.235-.676,2.6,2.6,0,0,0-1.665-1.164,6.035,6.035,0,0,0-1.085-.159l-.119-.01a3.212,3.212,0,0,0-1.164.163c-.092.025-.183.05-.275.072a3.588,3.588,0,0,0-1.2.624,4.339,4.339,0,0,0-1.169,1.258,5.214,5.214,0,0,0-.706,1.754,4.182,4.182,0,0,0,.2,2.678,2.809,2.809,0,0,0,1.219,1.35,2.27,2.27,0,0,0,.756.285l.218.032a3.64,3.64,0,0,0,.718.067,3.688,3.688,0,0,0,1.831-.632A4.959,4.959,0,0,0,25.4,24.141c.042-.059.069-.069.107-.072a4.965,4.965,0,0,0,.562-.047,3.617,3.617,0,0,0,1.335-.438c.193-.119.384-.243.57-.364.149-.1.3-.2.451-.292a4.118,4.118,0,0,0,.723-.557l-.022.064c-.022.067-.047.131-.069.2s-.042.111-.062.166l-.144.424c-.082.238-.161.478-.243.716-.057.161-.116.32-.173.481-.04.109-.082.22-.119.329l-.666,1.885c-.037.109-.077.218-.114.327-.082.238-.166.481-.263.713l-.015.04a9.853,9.853,0,0,0-.463,1.283,2.642,2.642,0,0,0,.035,1.632,1.534,1.534,0,0,0,1.211,1.03,2.117,2.117,0,0,0,.416.042,2.453,2.453,0,0,0,1-.228,3.508,3.508,0,0,0,1.142-.852,6.963,6.963,0,0,0,1.214-1.841l.1-.208a6.007,6.007,0,0,0,.359-.884c.154-.535.285-1.085.411-1.615.042-.178.084-.357.129-.533a.838.838,0,0,0,.02-.166l0-.062c.007-.069.012-.139.02-.208.015-.156.032-.32.035-.483a.463.463,0,0,1,.25-.414,8.271,8.271,0,0,0,1.008-.8c.191-.171.391-.347.595-.508a1.742,1.742,0,0,0,.57-.976.685.685,0,0,0-.154-.644.735.735,0,0,0-.644-.223,1.835,1.835,0,0,0-.9.4c-.315.248-.637.493-.951.731-.183.141-.369.28-.552.421-.233.178-.461.359-.691.54l-.084.069a.971.971,0,0,0-.359.7l-.027.27c-.037.347-.077.7-.087,1.058a3.672,3.672,0,0,1-.163.852c-.03.107-.059.211-.089.329a3.2,3.2,0,0,1-.141.49c-.107.268-.225.538-.339.8l-.1.22a4.232,4.232,0,0,1-1.045,1.479.845.845,0,0,1-.347.2,3.183,3.183,0,0,1,.116-.406c.079-.2.161-.4.243-.6s.178-.429.263-.647q.219-.569.436-1.139l.2-.52c.069-.176.136-.354.2-.53s.139-.354.206-.533l.679-1.786c.059-.149.116-.3.171-.448.082-.233.163-.463.248-.7.1-.29.2-.58.31-.869.064-.178.131-.354.2-.53.082-.213.163-.426.24-.642a.749.749,0,0,1,.213-.332c.211-.186.424-.374.632-.565a24.32,24.32,0,0,0,1.751-1.821,6.019,6.019,0,0,0,.438-.577c.171-.248.337-.5.5-.746.079-.116.159-.235.238-.354.04-.059.082-.116.121-.176a4.964,4.964,0,0,0,.275-.424c.151-.272.285-.552.441-.884.054-.121.1-.245.151-.364.037-.089.072-.181.111-.27a3.722,3.722,0,0,0,.23-.914l.02-.116a5.245,5.245,0,0,0,.02-1.429" transform="translate(28.136 14.155)" fill="#155aaa"/><path d="M28.874,21.027c0-.064,0-.126,0-.191a3.469,3.469,0,0,0-.263-1.5,4.479,4.479,0,0,0-1.187-1.627,3.958,3.958,0,0,0-1.979-.961,3.655,3.655,0,0,0-2.48.493,5.957,5.957,0,0,0-1.979,1.888A19.89,19.89,0,0,0,19.392,22c-.233.5-.448,1.016-.654,1.514l-.111.272c-.163.389-.287.716-.4,1.028-.119.342-.23.694-.342,1.035l-.131.4c-.04.124-.077.248-.114.372-.032.1-.064.2-.092.292l-.156.481c-.126.384-.255.783-.377,1.177-.059.2-.114.4-.166.6s-.1.379-.161.567c-.05.161-.1.32-.156.478s-.116.339-.168.513c-.1.342-.233.793-.342,1.256-.124.51-.233,1.033-.337,1.538l0,.017a1.621,1.621,0,0,0-.025.406,1.273,1.273,0,0,0,.969,1.157,1.172,1.172,0,0,0,1.291-.523,2.94,2.94,0,0,0,.394-1.011l.134-.542c.124-.481.24-.959.369-1.437.05-.2.111-.4.171-.587.042-.136.087-.272.126-.409.054-.2.111-.4.166-.6.092-.329.183-.669.29-1,.243-.79.5-1.63.788-2.452.3-.874.557-1.538.815-2.15.32-.753.679-1.509,1.026-2.237l.084-.171a8.222,8.222,0,0,1,1.033-1.65,3.453,3.453,0,0,1,.964-.877,1.05,1.05,0,0,1,.773-.146A1.636,1.636,0,0,1,26.2,20.874c-.007.121-.015.25-.017.406a7.723,7.723,0,0,1-.79,3.265,7.057,7.057,0,0,1-1,1.494,6.867,6.867,0,0,1-2.12,1.65,5.413,5.413,0,0,0-.718.456,1.2,1.2,0,0,0-.381,1.608c.193.3.406.59.612.872l.062.089c.3.411.6.822.9,1.234l.394.53c.213.295.429.59.651.882.337.458.681.919,1.026,1.377l.087.114c.206.27.411.547.627.815a1.251,1.251,0,0,0,.723.433,1.238,1.238,0,0,0,.29.032,1.521,1.521,0,0,0,1.31-.763.943.943,0,0,0,.092-.456,1.28,1.28,0,0,0-.307-.77c-.277-.357-.562-.728-.85-1.1-.357-.473-.716-.946-1.07-1.419l-.8-1.063c-.1-.136-.208-.272-.315-.406-.139-.181-.277-.362-.409-.545l-.035-.05.042-.027a9.111,9.111,0,0,0,1.655-1.293,9.207,9.207,0,0,0,1.945-2.658A7.938,7.938,0,0,0,28.431,24c.025-.1.059-.206.092-.315a3.378,3.378,0,0,0,.131-.513c.017-.131.042-.263.062-.394a7.968,7.968,0,0,0,.159-1.657Z" transform="translate(23.126 24.668)" fill="#155aaa"/><path d="M5.553,8.26a1.674,1.674,0,0,1,.77-1.615A4.382,4.382,0,0,1,7.517,6.07a13.481,13.481,0,0,1,2.274-.5l.332-.052.7-.111q.606-.093,1.211-.193l.332-.054c.409-.067.835-.134,1.244-.228.144-.032.287-.052.426-.072a2.515,2.515,0,0,0,.706-.166.756.756,0,0,1,.233-.05l.084-.007a1.34,1.34,0,0,0,.5-.1.659.659,0,0,1,.253-.052h.017a.4.4,0,0,0,.253-.074.423.423,0,0,1,.163-.082c.077-.022.156-.045.233-.064.129-.035.258-.069.386-.111a.745.745,0,0,0,.161-.087.4.4,0,0,1,.2-.077c.052-.025.1-.052.159-.082.545-.292.85-.456,1.209-.213a1.339,1.339,0,0,1,.664.627.771.771,0,0,1,0,.741c-.211.406-.424.81-.637,1.216-.1.191-.206.381-.307.572-.218.4-.443.817-.649,1.234-.24.483-.468.986-.689,1.474-.074.168-.151.337-.228.505-.134.287-.263.572-.394.86-.186.406-.369.81-.557,1.214-.062.134-.124.268-.186.4-.206.443-.416.9-.651,1.343-.508.949-1.043,1.907-1.561,2.831l-.285.51c-.119.211-.243.419-.364.617-.087.141-.173.285-.255.426a4.14,4.14,0,0,1-.651.81,1.059,1.059,0,0,1-.768.325,1.154,1.154,0,0,1-.287-.035,1.186,1.186,0,0,1-.86-.8,1.092,1.092,0,0,1,.136-.882c.218-.359.443-.718.669-1.075.3-.488.622-.993.919-1.5.327-.555.629-1.137.921-1.7l.146-.28c.191-.364.389-.765.624-1.266.28-.6.57-1.234.884-1.942.094-.211.183-.421.27-.634.079-.188.156-.377.238-.565.193-.438.406-.909.651-1.442.087-.191.178-.379.27-.57.057-.121.116-.243.173-.364l-.052.022-.057.022a1,1,0,0,1-.154.057c-.233.054-.481.111-.736.161l-.163.035c-.523.107-1.065.216-1.6.315-.213.04-.426.072-.642.1s-.4.064-.6.1c-.334.062-.666.126-1,.193l-.582.111c-.124.025-.25.047-.379.069-.25.045-.51.089-.758.151-.285.072-.575.161-.855.25l-.3.094a.275.275,0,0,0-.072.042c-.059.045-.064.069-.064.069s0,.017.04.054a2,2,0,0,0,.446.367c.26.136.54.258.808.377l.263.114c.089.042.183.079.275.116.159.067.32.134.478.213a2.212,2.212,0,0,1,.5.334.939.939,0,0,1,.131,1.231,1.241,1.241,0,0,1-1.345.5,8.813,8.813,0,0,1-1.935-.835A10.817,10.817,0,0,1,6.45,9.894,2.133,2.133,0,0,1,5.682,8.75c-.012-.052-.03-.1-.045-.151a1.889,1.889,0,0,1-.084-.339" transform="translate(8.183 5.283)" fill="#155aaa"/><path d="M23.584,15.283l.01-.017.007-.007c.054-.079.109-.159.161-.24a3.935,3.935,0,0,1,.622-.778,2.71,2.71,0,0,1,1.548-.778l.069-.01.05,0,.057,0,.1,0,.042.01a1.833,1.833,0,0,1,.3.1.24.24,0,0,1,.134.136.244.244,0,0,1-.032.2,1.266,1.266,0,0,1-.416.456,5.6,5.6,0,0,1-1.553.666c-.156.042-.315.084-.471.129l-.381.1-.03.007a.723.723,0,0,1-.171.035l-.047,0m-7.176-5.6.022-.045c.121-.25.245-.508.359-.765s.238-.547.354-.822c.124-.3.255-.6.389-.9.228-.505.468-1.008.721-1.5a2.14,2.14,0,0,1,.295-.4l.007-.007c0,.035-.007.072-.01.109a3.449,3.449,0,0,1-.084.59,7.343,7.343,0,0,1-.8,1.922,18.791,18.791,0,0,1-1.251,1.823m14.4,6.1h0a1.219,1.219,0,0,0-1.335.089c-.741.5-1.372.889-1.989,1.236a8,8,0,0,1-1.516.689,3.64,3.64,0,0,1-1.34.211l-.04,0a2.242,2.242,0,0,1-.835-.156.948.948,0,0,1-.515-.562l0-.02.025,0h.02a.327.327,0,0,0,.074-.007l.352-.05a7.656,7.656,0,0,0,.835-.146,14.166,14.166,0,0,0,1.509-.466,5.316,5.316,0,0,0,1.625-.914,2.5,2.5,0,0,0,1-2.175,1.882,1.882,0,0,0-.78-1.429,2.68,2.68,0,0,0-1.035-.448,3.8,3.8,0,0,0-2.2.161,4.5,4.5,0,0,0-1.006.52,5.735,5.735,0,0,0-.949.765,5.613,5.613,0,0,0-1.273,2.22.522.522,0,0,0-.022.129l-.007.05-.03.156a3.107,3.107,0,0,1-.084.369.39.39,0,0,1-.134.176,19.761,19.761,0,0,1-2.435,1.556.8.8,0,0,0-.079.042l.042-.077c.069-.124.139-.25.2-.377.109-.208.213-.419.317-.627.193-.386.394-.785.6-1.172.1-.193.216-.384.327-.572a10.659,10.659,0,0,0,.676-1.281,2.065,2.065,0,0,0,.134-1.219l0-.022a.4.4,0,0,0-.057-.171,1.206,1.206,0,0,0-1.367-.582,3.286,3.286,0,0,0-1.011.535c-.26.2-.515.394-.773.595-.141.111-.285.223-.429.334l-1.479,1.144-.595.461-.617.481c-.228.178-.453.357-.679.533l-.367.29.054-.119a4.108,4.108,0,0,0,.2-.466,1.972,1.972,0,0,1,.582-.845c.354-.317.674-.6.971-.929.681-.738,1.343-1.481,2.073-2.309.255-.287.5-.582.713-.877.362-.486.666-.917.934-1.318a14.864,14.864,0,0,0,.793-1.278,6.778,6.778,0,0,0,.5-1.308,4.8,4.8,0,0,0,.218-1.635,2.248,2.248,0,0,0-.448-1.224,1.581,1.581,0,0,0-1.149-.622,2.5,2.5,0,0,0-1.167.216A1.692,1.692,0,0,0,16.97,4l-.159.248c-.2.307-.4.624-.577.951-.218.406-.421.827-.614,1.236-.064.131-.126.265-.191.4l-.054.111c-.171.357-.349.726-.513,1.092q-.282.639-.557,1.286c-.111.26-.225.523-.339.785-.082.191-.166.379-.25.57q-.2.45-.394.9-.145.346-.282.691c-.092.23-.183.458-.28.686l-.035.084a1.294,1.294,0,0,1-.26.448c-.607.587-1.288,1.13-1.888,1.608-.141.111-.287.218-.431.327s-.287.208-.426.32a.927.927,0,0,0-.126,1.372,1.028,1.028,0,0,0,1.414.107l.012-.007q-.033.082-.074.163c-.04.089-.084.183-.119.28l-.022.062c-.126.339-.255.691-.362,1.045a.978.978,0,0,0,.374,1.07.844.844,0,0,0,1.053.082l.047-.027a1.591,1.591,0,0,0,.183-.124c.156-.126.312-.253.468-.381s.339-.275.51-.411c.354-.285.713-.567,1.07-.85.436-.344.869-.691,1.3-1.035q.427-.342.85-.691l.327-.265q.535-.435,1.073-.869c-.052.092-.1.186-.151.28-.1.2-.2.411-.29.612l-.079.171c-.074.166-.151.329-.228.493-.181.384-.367.783-.535,1.182a1.573,1.573,0,0,0-.04,1.184,1.335,1.335,0,0,0,1.241.894,1.41,1.41,0,0,0,.225-.02,5.156,5.156,0,0,0,.971-.268c.339-.131.669-.3.986-.456l.161-.079c.27-.136.528-.285.746-.414s.419-.255.639-.394l.173-.107.047.069c.032.047.067.1.1.149.074.111.151.228.24.337a3.227,3.227,0,0,0,2.111,1.073,5.378,5.378,0,0,0,2.125-.181,9.449,9.449,0,0,0,1.152-.4l.077-.032a11.638,11.638,0,0,0,2.049-1.07,9.888,9.888,0,0,0,1.31-.974,2.076,2.076,0,0,0,.414-.5.731.731,0,0,0-.332-1.013" transform="translate(13.806 4.598)" fill="#155aaa"/><path d="M37.989,62.523A1.47,1.47,0,0,0,36.5,61.069c-18.489,0-33.533-14.712-33.533-32.8A32.415,32.415,0,0,1,10.627,7.409a1.432,1.432,0,0,0-.2-2.046,1.511,1.511,0,0,0-2.093.2,35.132,35.132,0,0,0,2.356,47.957A36.688,36.688,0,0,0,36.5,63.977a1.47,1.47,0,0,0,1.486-1.454" transform="translate(0 7.432)" fill="#155aaa"/><path d="M48.659,63.3a1.5,1.5,0,0,1-1.135-.513,1.431,1.431,0,0,1,.173-2.049A32.472,32.472,0,0,0,59.563,35.7c0-18.086-15.041-32.8-33.533-32.8A34.1,34.1,0,0,0,9.317,7.263a1.5,1.5,0,0,1-2.029-.535,1.437,1.437,0,0,1,.547-1.984A37.129,37.129,0,0,1,26.03,0,36.677,36.677,0,0,1,51.842,10.456a35.177,35.177,0,0,1-2.224,52.5,1.5,1.5,0,0,1-.959.344" transform="translate(10.473 0)" fill="#155aaa"/><path d="M17.792,32.086c.307-.089.808-.258,1.271-.394.983-.285,1.605-.364,1.736-.4s0-.81-.047-.946-.748.007-1.048.094a9.539,9.539,0,0,0-1.206.476l-.02-.017c.773-.763,1.843-1.925,1.481-3.124a1.694,1.694,0,0,0-2.237-1.058A1.769,1.769,0,0,0,16.405,28.9c.191.632.654.926.765.894.094-.027.674-.595.642-.7a.263.263,0,0,0-.072-.1,1.086,1.086,0,0,1-.245-.443.706.706,0,0,1,.515-.931.643.643,0,0,1,.832.508c.292.907-1.169,2.306-1.645,3.265a.127.127,0,0,0-.017.107c.027.087.523.619.612.595" transform="translate(24.131 39.32)" fill="#155aaa"/><path d="M20.271,30.387a.134.134,0,0,1,.015-.107c.478-.959,1.937-2.358,1.647-3.265a.643.643,0,0,0-.832-.508.707.707,0,0,0-.515.931,1.043,1.043,0,0,0,.245.443.292.292,0,0,1,.072.1c.032.107-.547.674-.642.7-.111.032-.575-.263-.765-.892a1.769,1.769,0,0,1,1.318-2.187,1.7,1.7,0,0,1,2.237,1.058c.362,1.2-.708,2.361-1.484,3.126l.022.015a9.54,9.54,0,0,1,1.206-.476c.3-.087,1.006-.23,1.048-.094s.163.914.047.946-.756.119-1.739.406c-.461.134-.961.3-1.268.391-.089.027-.585-.508-.612-.595" transform="translate(28.695 37.689)" fill="#155aaa"/><path d="M20.824,30.3c-.587.272-1.162-.29-1.568-1.137-.4-.827-.54-1.727.1-2.021.609-.28,1.149.265,1.553,1.1.431.9.557,1.761-.082,2.054m1.132-2.561c-.617-1.288-1.751-2.031-2.99-1.459-1.36.624-1.367,2.125-.763,3.384.651,1.362,1.833,2.026,3,1.486,1.281-.59,1.419-2.009.748-3.411" transform="translate(26.321 38.534)" fill="#155aaa"/><path d="M11.191,20.45c.05-.069.1-.139.144-.208a3.6,3.6,0,0,1,.632-.775,2.563,2.563,0,0,1,1.516-.686.983.983,0,0,1,.567.109.252.252,0,0,1,.146.188l-.015.054a.376.376,0,0,1-.037.107,1.244,1.244,0,0,1-.411.416,5.209,5.209,0,0,1-1.457.562l-.077.017c-.24.057-.481.114-.723.168a2,2,0,0,1-.28.047Zm22.557-5.529h0A1.2,1.2,0,0,0,32.7,14.3c-.181,0-.369-.007-.55-.015l-.23-.01-.04,0,.017-.037.03-.052A1,1,0,0,0,32,14.051c.139-.357.28-.716.416-1.073l.089-.235c.119-.312.243-.632.352-.954A3.647,3.647,0,0,0,33,11.116a.772.772,0,0,0-.213-.607,1.029,1.029,0,0,0-.681-.374.9.9,0,0,0-.86.505,2.711,2.711,0,0,0-.183.431c-.022.062-.042.121-.067.181-.087.225-.176.453-.26.681-.062.156-.121.312-.181.468-.064.176-.131.349-.2.523-.052.134-.1.27-.159.4-.089.228-.181.458-.265.686-.067.181-.067.183-.255.173l-.416-.022-.847-.04a1.421,1.421,0,0,0-.352.017.974.974,0,0,0-.741.565.917.917,0,0,0,.139.884,1.054,1.054,0,0,0,.77.433c.218.02.438.027.651.037l.213.007.012,0v0c-.007.027-.015.054-.02.082-.015.054-.027.109-.047.161l-.124.334c-.161.441-.329.9-.5,1.34a1.975,1.975,0,0,1-.642.884c-.483.362-.991.733-1.509,1.107-.2.141-.394.277-.592.416s-.4.277-.6.421c-.134.094-.258.2-.379.3l-.163.131-.03.027c-.03.025-.059.05-.092.072-.421.265-.845.53-1.266.79a.465.465,0,0,0,.032-.1c.015-.092.032-.181.05-.272a5.047,5.047,0,0,0,.111-.825,11.119,11.119,0,0,0-.059-1.32l0-.022a12.716,12.716,0,0,1-.047-1.665,4.665,4.665,0,0,1,.24-1.335c.045-.129.094-.258.141-.384.062-.163.124-.325.178-.488a.964.964,0,0,0-.2-1.013.976.976,0,0,0-.959-.349.991.991,0,0,0-.711.59c-.062.141-.114.287-.161.431l-.015.04c-.03.087-.057.178-.082.27a2.755,2.755,0,0,1-.166.463,8.53,8.53,0,0,1-1.147,1.754c-.119.136-.24.275-.359.414-.372.431-.756.877-1.152,1.3a7.383,7.383,0,0,1-.7.627l-.26.218c-.092.079-.181.159-.27.24a4.136,4.136,0,0,1-.713.557c-.235.134-.466.272-.7.409-.4.24-.822.49-1.248.708a7,7,0,0,1-1.236.518,2.233,2.233,0,0,1-.23.054c-.109.025-.223.05-.334.087a2.4,2.4,0,0,1-.926.072c-.059,0-.116-.007-.173-.007a1.725,1.725,0,0,1-.661-.166.949.949,0,0,1-.5-.518l-.025-.064c.017,0,.042-.007.079-.01.074-.007.151-.015.228-.02a7.958,7.958,0,0,0,.9-.111c.4-.082.808-.2,1.194-.3l.193-.054a3.318,3.318,0,0,0,.409-.151l.107-.045a4.049,4.049,0,0,0,1.523-.993,2.308,2.308,0,0,0,.468-.7,2.56,2.56,0,0,0,.136-1.07,1.742,1.742,0,0,0-.508-1.149,2.582,2.582,0,0,0-1.514-.758,3.849,3.849,0,0,0-2.549.429,4.606,4.606,0,0,0-1.672,1.449,4.557,4.557,0,0,0-.619,1.216.845.845,0,0,1-.431.609.972.972,0,0,0-.181.109l-.059.04a1.378,1.378,0,0,0-.5.515.846.846,0,0,0-.037.656.691.691,0,0,0,.4.381,2.525,2.525,0,0,0,.466.129c.062.01.062.012.072.045a1.536,1.536,0,0,0,.057.171,1.212,1.212,0,0,1,.057.186,2.115,2.115,0,0,0,.5.944A3.276,3.276,0,0,0,11.721,25a3.6,3.6,0,0,0,.585.045,6.863,6.863,0,0,0,.917-.074,7.5,7.5,0,0,0,1.452-.377,13.367,13.367,0,0,0,1.452-.642l.059-.027a8.99,8.99,0,0,0,1.776-1.137,1.871,1.871,0,0,1,.218-.151l.074-.045c.072-.045.144-.087.216-.129a4.259,4.259,0,0,0,.451-.295,16.264,16.264,0,0,0,1.992-1.994,3.09,3.09,0,0,0,.2-.253c.037-.05.077-.1.111-.146l.01.243c0,.186.012.374.015.56l.007.166a1.5,1.5,0,0,1-.012.4,6.235,6.235,0,0,1-.357,1.132,1.673,1.673,0,0,1-.912.912.721.721,0,0,1-.595-.02c-.109-.052-.218-.116-.31-.168a.945.945,0,0,0-1.117.064.857.857,0,0,0-.329.612.763.763,0,0,0,.22.6,1.652,1.652,0,0,0,.419.322,4.645,4.645,0,0,0,.681.255,2.9,2.9,0,0,0,1.13.149c.307-.027.557-.059.79-.1l.126-.022a6.478,6.478,0,0,0,.852-.188c.448-.146.889-.325,1.318-.5l.037-.017a10.737,10.737,0,0,0,1.979-1.045l.166-.111c.24-.159.486-.322.736-.466a9.507,9.507,0,0,0,.926-.572,3.355,3.355,0,0,0-.287.773l-.01.045a3.365,3.365,0,0,0-.094.708,1.381,1.381,0,0,0,.481,1.035,1.123,1.123,0,0,0,.783.322,3.219,3.219,0,0,0,.741-.107,5.29,5.29,0,0,0,1.063-.406,9.708,9.708,0,0,0,2.071-1.37,7.087,7.087,0,0,0,.609-.644l.037-.04a.576.576,0,0,0,.077-.607,1.262,1.262,0,0,0-.166-.332.912.912,0,0,0-1.095-.364,2.034,2.034,0,0,0-.476.272c-.349.265-.684.538-.934.746a5.085,5.085,0,0,1-1.115.753l-.047.025-.059.027.015-.03.012-.022a2.335,2.335,0,0,0,.119-.25c.069-.176.136-.352.2-.528.045-.119.092-.24.139-.359.077-.2.154-.391.233-.59.094-.243.191-.483.285-.728.173-.443.342-.889.51-1.335l.017-.047c.089-.233.176-.468.263-.7.109-.292.218-.582.329-.872.074-.193.151-.384.228-.577s.149-.369.22-.552c.022-.062.037-.074.121-.069.325.02.681.035,1.087.047.24,0,.476,0,.706-.007a.858.858,0,0,0,.676-1.276" transform="translate(11.782 14.968)" fill="#155aaa"/><path d="M14.685,22.24a3.489,3.489,0,0,1-2,2.368,6.213,6.213,0,0,1-1.6.6,7.875,7.875,0,0,1-1.712.218c-.037,0-.074,0-.109,0-.411-.007-.82-.052-1.216-.1L7.821,25.3a4.67,4.67,0,0,1-1.293-.372,1,1,0,0,1-.649-.9.988.988,0,0,1,.56-.969,1.154,1.154,0,0,1,.81-.111c.183.045.369.084.555.121l.233.05.042.007.2.01a11.265,11.265,0,0,0,1.982,0,3.37,3.37,0,0,0,1.652-.57,1.457,1.457,0,0,0,.463-.481.836.836,0,0,0-.168-1.065,1.544,1.544,0,0,0-.6-.354c-.1-.035-.2-.074-.292-.116-.057-.025-.116-.05-.173-.072-.136-.052-.27-.1-.406-.154q-.386-.145-.773-.3a2.629,2.629,0,0,1-.443-.233,1.118,1.118,0,0,1-.5-.917,1.9,1.9,0,0,1,.6-1.5,3.171,3.171,0,0,1,.884-.582c.178-.089.364-.171.545-.25.161-.069.32-.141.478-.216a4.534,4.534,0,0,0,1.278-.855A2.08,2.08,0,0,0,13.442,14a10.782,10.782,0,0,0-.047-1.2,1.415,1.415,0,0,0-.116-.429.937.937,0,0,0-.855-.557,1.751,1.751,0,0,0-1.466.6,4.643,4.643,0,0,0-.941,1.4c-.317.671-.577,1.239-.832,1.813-.287.644-.567,1.291-.847,1.94l-.3.691q-.424.97-.842,1.945l-.562,1.3q-.32.747-.644,1.491c-.268.607-.535,1.206-.8,1.781a1.093,1.093,0,0,1-1.33.575,1,1,0,0,1-.718-.926.978.978,0,0,1,.067-.386c.094-.23.193-.461.292-.691.077-.176.151-.352.225-.53.042-.1.082-.2.119-.3.05-.134.1-.272.163-.406.082-.188.171-.372.26-.555.077-.159.154-.317.225-.478q.193-.424.379-.847c.126-.285.253-.567.381-.85s.263-.57.394-.855.255-.542.379-.815c.1-.211.188-.424.282-.637s.171-.4.26-.592c.131-.285.263-.567.394-.85.121-.26.243-.518.362-.778.077-.168.151-.337.225-.5.1-.225.2-.458.312-.686a8.451,8.451,0,0,1,.77-1.291,7.007,7.007,0,0,1,.746-.9,6.142,6.142,0,0,1,.988-.753,3.652,3.652,0,0,1,.926-.389l.233-.074a1.431,1.431,0,0,1,.369-.059,4.136,4.136,0,0,1,1.967.347A3.023,3.023,0,0,1,15.4,12.056a3.917,3.917,0,0,1,.228,2.66,6.745,6.745,0,0,1-.32.978,4.571,4.571,0,0,1-1.3,1.65,7.2,7.2,0,0,1-1.58.976,2.523,2.523,0,0,1-.349.134L12,18.482l.01,0,.025.007a5.56,5.56,0,0,1,1.216.56A3.031,3.031,0,0,1,14.41,20.2a2.852,2.852,0,0,1,.275,2.036" transform="translate(4.636 15.051)" fill="#155aaa"/><path d="M22.18,29.883a.116.116,0,0,1,0-.107c.391-1,1.724-2.519,1.355-3.4a.645.645,0,0,0-.874-.431.7.7,0,0,0-.434.971,1.073,1.073,0,0,0,.285.421.273.273,0,0,1,.079.1c.042.107-.486.721-.577.756s-.595-.211-.84-.822A1.771,1.771,0,0,1,22.3,25.075a1.693,1.693,0,0,1,2.319.86c.468,1.162-.5,2.413-1.2,3.243l.022.015a9.021,9.021,0,0,1,1.159-.58c.29-.111.986-.317,1.038-.186s.24.9.129.939c-.129.05-.743.183-1.694.555-.453.173-.936.386-1.234.5-.087.032-.624-.456-.659-.54" transform="translate(31.113 36.808)" fill="#155aaa"/></g></g></svg>