<svg xmlns="http://www.w3.org/2000/svg" xmlns:xlink="http://www.w3.org/1999/xlink" width="169.149" height="57" viewBox="0 0 169.149 57"><defs><clipPath id="a"><rect width="169.149" height="57" fill="#fff"/></clipPath></defs><g transform="translate(0 0)"><g transform="translate(0 0)" clip-path="url(#a)"><path d="M80.546,3.642h-.271a4.425,4.425,0,0,0-.157-1.135,2.844,2.844,0,0,0-.562-1.09A3.09,3.09,0,0,0,78.467.6,4.07,4.07,0,0,0,76.724.27H74.476V17.511a2.034,2.034,0,0,0,.045.382,1.632,1.632,0,0,0,.147.427,1.29,1.29,0,0,0,.247.349.477.477,0,0,0,.348.146v.292H70.992v-.292a.476.476,0,0,0,.348-.146,1.314,1.314,0,0,0,.248-.349,1.7,1.7,0,0,0,.147-.427,2.024,2.024,0,0,0,.044-.382V.27H69.553A4.394,4.394,0,0,0,67.711.6a2.855,2.855,0,0,0-1.08.821,2.629,2.629,0,0,0-.505,1.09A5.6,5.6,0,0,0,66,3.642H65.71V0H80.546Z" transform="translate(-5.019 0)" fill="#fff"/><path d="M100.765.27a.5.5,0,0,0-.348.135,1.148,1.148,0,0,0-.248.338,1.665,1.665,0,0,0-.146.427,2.043,2.043,0,0,0-.045.4V17.511a1.976,1.976,0,0,0,.045.383,1.67,1.67,0,0,0,.146.426,1.313,1.313,0,0,0,.248.349.476.476,0,0,0,.348.146v.292H96.494v-.292a.5.5,0,0,0,.348-.135,1.138,1.138,0,0,0,.247-.337,1.673,1.673,0,0,0,.147-.428,2.035,2.035,0,0,0,.045-.381V5.889H89.638V17.511a2.041,2.041,0,0,0,.044.383,1.745,1.745,0,0,0,.146.426,1.316,1.316,0,0,0,.248.349.475.475,0,0,0,.348.146v.292H86.154v-.292a.5.5,0,0,0,.348-.135,1.171,1.171,0,0,0,.247-.337,1.671,1.671,0,0,0,.146-.428,1.96,1.96,0,0,0,.045-.381V1.574a2.044,2.044,0,0,0-.045-.4,1.665,1.665,0,0,0-.146-.427A1.163,1.163,0,0,0,86.5.4.5.5,0,0,0,86.154.27V0h4.271V.27A.5.5,0,0,0,90.077.4a1.151,1.151,0,0,0-.248.338,1.738,1.738,0,0,0-.146.427,2.108,2.108,0,0,0-.044.4V5.62h7.643V1.574a2.115,2.115,0,0,0-.045-.4,1.667,1.667,0,0,0-.147-.427A1.13,1.13,0,0,0,96.842.4.5.5,0,0,0,96.494.27V0h4.271Z" transform="translate(-6.581 0)" fill="#fff"/><path d="M117.144,3.642h-.27a4.465,4.465,0,0,0-.157-1.135,2.857,2.857,0,0,0-.562-1.09A3.1,3.1,0,0,0,115.065.6,4.066,4.066,0,0,0,113.323.27h-3.484v5.35h3.484a1.242,1.242,0,0,0,.685-.168,1.151,1.151,0,0,0,.393-.417,1.623,1.623,0,0,0,.18-.516,2.962,2.962,0,0,0,.044-.473h.271V7.463h-.271a1.967,1.967,0,0,0-.067-.472,1.588,1.588,0,0,0-.236-.517,1.424,1.424,0,0,0-.45-.416,1.357,1.357,0,0,0-.708-.169h-3.326V18.815h3.484a4.4,4.4,0,0,0,1.844-.326,2.868,2.868,0,0,0,1.079-.82,2.637,2.637,0,0,0,.505-1.091,5.544,5.544,0,0,0,.124-1.135h.27v3.664h-10.79v-.292a.5.5,0,0,0,.349-.136,1.183,1.183,0,0,0,.247-.336,1.684,1.684,0,0,0,.146-.428,1.96,1.96,0,0,0,.045-.382V1.574a2.059,2.059,0,0,0-.045-.405,1.689,1.689,0,0,0-.146-.427A1.175,1.175,0,0,0,106.7.4a.5.5,0,0,0-.349-.135V0h10.79Z" transform="translate(-8.124 0)" fill="#fff"/><path d="M13.8,40.9a14.065,14.065,0,0,1,3.907.748A10.125,10.125,0,0,1,20.861,43.4a8.1,8.1,0,0,1,2.112,2.692,7.92,7.92,0,0,1,.766,3.514,7.574,7.574,0,0,1-.859,3.626,8.615,8.615,0,0,1-2.318,2.747,10.737,10.737,0,0,1-3.4,1.758,13.655,13.655,0,0,1-4.15.617H0v-.486a.827.827,0,0,0,.58-.224,1.95,1.95,0,0,0,.411-.561,2.882,2.882,0,0,0,.243-.71,3.314,3.314,0,0,0,.074-.636V29.2a3.461,3.461,0,0,0-.074-.673,2.869,2.869,0,0,0-.243-.71,1.938,1.938,0,0,0-.411-.561A.827.827,0,0,0,0,27.027v-.449H10.281a13.441,13.441,0,0,1,3.851.524,9.526,9.526,0,0,1,3.029,1.477,6.483,6.483,0,0,1,2.654,5.364,6.323,6.323,0,0,1-1.626,4.411A8.88,8.88,0,0,1,13.8,40.9m-8-.037h4.486a3.829,3.829,0,0,0,2.186-.616,5.13,5.13,0,0,0,1.515-1.59,7.249,7.249,0,0,0,.878-2.206,11.313,11.313,0,0,0,0-5.01,7.487,7.487,0,0,0-.878-2.224,4.881,4.881,0,0,0-1.515-1.59,3.914,3.914,0,0,0-2.186-.6H5.795Zm7.215,17.01a4.794,4.794,0,0,0,2.636-.73,6.148,6.148,0,0,0,1.888-1.906,9.464,9.464,0,0,0,1.14-2.654,11.528,11.528,0,0,0,.393-2.971,11.691,11.691,0,0,0-.393-3.01,9.458,9.458,0,0,0-1.14-2.654,6.142,6.142,0,0,0-1.888-1.907,4.794,4.794,0,0,0-2.636-.729H5.795V57.869Z" transform="translate(0 -2.03)" fill="#fff"/><path d="M44.455,32.634h-.449a7.44,7.44,0,0,0-.261-1.889,4.763,4.763,0,0,0-.935-1.813A5.168,5.168,0,0,0,41,27.568a6.759,6.759,0,0,0-2.9-.542H32.3v8.9H38.1a2.067,2.067,0,0,0,1.141-.28,1.922,1.922,0,0,0,.654-.692,2.708,2.708,0,0,0,.3-.86,4.75,4.75,0,0,0,.075-.785h.449v5.683h-.449a3.3,3.3,0,0,0-.112-.786,2.683,2.683,0,0,0-.393-.859,2.345,2.345,0,0,0-.747-.692,2.255,2.255,0,0,0-1.178-.281H32.3v21.5H38.1a7.3,7.3,0,0,0,3.065-.542,4.759,4.759,0,0,0,1.795-1.364,4.38,4.38,0,0,0,.84-1.813,9.263,9.263,0,0,0,.206-1.888h.449v6.093H26.511v-.486a.829.829,0,0,0,.579-.224,1.926,1.926,0,0,0,.411-.562,2.832,2.832,0,0,0,.243-.71,3.316,3.316,0,0,0,.075-.635V29.195a3.483,3.483,0,0,0-.075-.673,2.825,2.825,0,0,0-.243-.709,1.926,1.926,0,0,0-.411-.562.826.826,0,0,0-.579-.224v-.449H44.455Z" transform="translate(-2.025 -2.03)" fill="#fff"/><path d="M51.372,31.968a4.679,4.679,0,0,0,1.271,3.308,13.61,13.61,0,0,0,3.178,2.468q1.906,1.1,4.13,2.131a28.216,28.216,0,0,1,4.131,2.336A12.715,12.715,0,0,1,67.26,45.3a7.221,7.221,0,0,1,1.272,4.318,8.271,8.271,0,0,1-.916,3.981A8.724,8.724,0,0,1,65.2,56.436a10.478,10.478,0,0,1-3.345,1.7,12.79,12.79,0,0,1-3.72.561,11.6,11.6,0,0,1-4.43-.8,11.041,11.041,0,0,1-3.328-2.056,9.138,9.138,0,0,1-2.093-2.766,6.683,6.683,0,0,1-.729-2.9,2.109,2.109,0,0,1,.505-1.439,1.894,1.894,0,0,1,2.728,0,2.112,2.112,0,0,1,.5,1.439,12.529,12.529,0,0,0,.393,3.234,6.906,6.906,0,0,0,1.233,2.542,5.751,5.751,0,0,0,2.131,1.664,7.278,7.278,0,0,0,3.084.6,9.055,9.055,0,0,0,3.085-.505,7.463,7.463,0,0,0,2.392-1.364,6.263,6.263,0,0,0,1.552-2.019,5.588,5.588,0,0,0,.561-2.468,4.747,4.747,0,0,0-1.271-3.327,14.56,14.56,0,0,0-3.177-2.543q-1.908-1.157-4.131-2.223a29.637,29.637,0,0,1-4.131-2.393,13.141,13.141,0,0,1-3.177-3.084,7.523,7.523,0,0,1-.635-7.215,7.59,7.59,0,0,1,1.813-2.5,9.117,9.117,0,0,1,2.8-1.738,9.48,9.48,0,0,1,3.57-.655,11.687,11.687,0,0,1,3.552.524,10.449,10.449,0,0,1,2.822,1.346,6.882,6.882,0,0,1,1.851,1.851,3.652,3.652,0,0,1,.672,2,2.112,2.112,0,0,1-.5,1.439,1.9,1.9,0,0,1-2.729,0,2.112,2.112,0,0,1-.5-1.439,6.339,6.339,0,0,0-.393-2.337,4.428,4.428,0,0,0-1.1-1.645,4.6,4.6,0,0,0-1.645-.972,6.243,6.243,0,0,0-2.019-.318A7.051,7.051,0,0,0,55.074,27a5.749,5.749,0,0,0-1.907,1.083,5.389,5.389,0,0,0-1.308,1.683,4.85,4.85,0,0,0-.487,2.206" transform="translate(-3.633 -1.999)" fill="#fff"/><path d="M94.129,32.634h-.449a7.4,7.4,0,0,0-.261-1.889,4.773,4.773,0,0,0-.934-1.813,5.176,5.176,0,0,0-1.813-1.364,6.766,6.766,0,0,0-2.9-.542H84.035V55.7a3.316,3.316,0,0,0,.075.635,2.827,2.827,0,0,0,.244.711,2.19,2.19,0,0,0,.411.579.789.789,0,0,0,.58.243v.486h-7.1v-.486a.79.79,0,0,0,.579-.243,2.236,2.236,0,0,0,.412-.579,2.826,2.826,0,0,0,.243-.711,3.392,3.392,0,0,0,.075-.635V27.026h-3.7a7.312,7.312,0,0,0-3.066.542,4.771,4.771,0,0,0-1.795,1.364,4.39,4.39,0,0,0-.84,1.813,9.272,9.272,0,0,0-.206,1.889h-.486V26.577H94.129Z" transform="translate(-5.305 -2.03)" fill="#fff"/><path d="M135.668,27.309A16.565,16.565,0,0,1,141.8,28.43a14.862,14.862,0,0,1,4.953,3.178,14.526,14.526,0,0,1,3.307,4.99,17.336,17.336,0,0,1,1.2,6.6,17.367,17.367,0,0,1-1.2,6.58,14.456,14.456,0,0,1-3.307,5.009,14.807,14.807,0,0,1-4.953,3.179,16.546,16.546,0,0,1-6.132,1.121h-9.682V58.6a.828.828,0,0,0,.58-.225,1.945,1.945,0,0,0,.411-.56,2.869,2.869,0,0,0,.243-.71,3.322,3.322,0,0,0,.074-.635V29.927a3.461,3.461,0,0,0-.074-.673,2.869,2.869,0,0,0-.243-.71,1.938,1.938,0,0,0-.411-.561.827.827,0,0,0-.58-.224v-.449Zm0,31.291a8.873,8.873,0,0,0,4.991-1.365,11.061,11.061,0,0,0,3.4-3.55,15.984,15.984,0,0,0,1.925-4.936,26.045,26.045,0,0,0,0-11.1,15.96,15.96,0,0,0-1.925-4.935,10.865,10.865,0,0,0-3.4-3.533,8.969,8.969,0,0,0-4.991-1.346h-3.887V58.6Z" transform="translate(-9.623 -2.086)" fill="#fff"/><path d="M168.737,41.777a4.839,4.839,0,0,1,2.618,1.888,17.9,17.9,0,0,1,1.868,3.309q.823,1.869,1.515,3.925a30.283,30.283,0,0,0,1.53,3.756,11.155,11.155,0,0,0,1.927,2.823,3.637,3.637,0,0,0,2.729,1.122v.486a25.337,25.337,0,0,1-3.851-.243,8.06,8.06,0,0,1-2.6-.824,5.494,5.494,0,0,1-1.795-1.55,15.627,15.627,0,0,1-1.439-2.393q-.56-1.158-1.1-2.5T169.056,48.9q-.543-1.327-1.142-2.58a14.874,14.874,0,0,0-1.271-2.206,5.9,5.9,0,0,0-1.5-1.514,3.121,3.121,0,0,0-1.795-.561h-3.4V56.431a3.278,3.278,0,0,0,.076.637,2.827,2.827,0,0,0,.241.708,2.194,2.194,0,0,0,.412.581.791.791,0,0,0,.579.243v.486h-7.1V58.6a.828.828,0,0,0,.58-.225,1.963,1.963,0,0,0,.411-.56,2.843,2.843,0,0,0,.242-.71,3.258,3.258,0,0,0,.075-.635V29.926a3.4,3.4,0,0,0-.075-.672,2.83,2.83,0,0,0-.242-.71,1.96,1.96,0,0,0-.411-.562.83.83,0,0,0-.58-.224v-.449h11.775a13.443,13.443,0,0,1,3.851.524,9.521,9.521,0,0,1,3.028,1.477,6.481,6.481,0,0,1,2.654,5.364,6.345,6.345,0,0,1-1.832,4.654,9.144,9.144,0,0,1-4.9,2.449m-2.8-.187a3.916,3.916,0,0,0,2.207-.617,5.433,5.433,0,0,0,1.569-1.59,7.321,7.321,0,0,0,.955-2.206,10.01,10.01,0,0,0,.317-2.5,10.6,10.6,0,0,0-.3-2.5,7.282,7.282,0,0,0-.934-2.225,5.116,5.116,0,0,0-1.59-1.589,4.105,4.105,0,0,0-2.225-.6h-5.98V41.59Z" transform="translate(-11.775 -2.086)" fill="#fff"/><path d="M91.872,45.007a11.119,11.119,0,0,1,.663-3.9,9.43,9.43,0,0,1,1.844-3.09,8.581,8.581,0,0,1,2.776-2.046,8.047,8.047,0,0,1,3.439-.742,7.959,7.959,0,0,1,3.44.742,8.288,8.288,0,0,1,2.719,2.046,9.456,9.456,0,0,1,1.788,3.09,12.2,12.2,0,0,1,0,7.8A9.437,9.437,0,0,1,106.752,52a8.276,8.276,0,0,1-2.719,2.046,7.96,7.96,0,0,1-3.44.743,8.048,8.048,0,0,1-3.439-.743A8.567,8.567,0,0,1,94.379,52a9.411,9.411,0,0,1-1.844-3.09,11.118,11.118,0,0,1-.663-3.9m2.81,0a19.408,19.408,0,0,0,.337,3.708,10.014,10.014,0,0,0,1.057,3.013,5.736,5.736,0,0,0,1.844,2.023,4.748,4.748,0,0,0,2.675.742,4.641,4.641,0,0,0,2.653-.742,5.547,5.547,0,0,0,1.787-2.023,10.509,10.509,0,0,0,1.011-3.013,21.317,21.317,0,0,0,0-7.418,10.668,10.668,0,0,0-1.011-3.023,5.513,5.513,0,0,0-1.787-2.035,4.634,4.634,0,0,0-2.653-.742,4.687,4.687,0,0,0-2.664.742,5.845,5.845,0,0,0-1.844,2.035A9.99,9.99,0,0,0,95.019,41.3a19.418,19.418,0,0,0-.337,3.709" transform="translate(-7.018 -2.69)" fill="#fff"/><path d="M123.35,39.114h-.27a4.465,4.465,0,0,0-.157-1.135,2.857,2.857,0,0,0-.562-1.09,3.1,3.1,0,0,0-1.091-.821,4.066,4.066,0,0,0-1.742-.326h-3.484v5.35h3.484a1.242,1.242,0,0,0,.685-.168,1.151,1.151,0,0,0,.393-.417,1.623,1.623,0,0,0,.18-.516,2.963,2.963,0,0,0,.044-.473h.271v3.417h-.271a1.968,1.968,0,0,0-.067-.472,1.588,1.588,0,0,0-.236-.517,1.425,1.425,0,0,0-.45-.416,1.357,1.357,0,0,0-.708-.169h-3.326V52.983a1.95,1.95,0,0,0,.044.382,1.7,1.7,0,0,0,.146.427,1.335,1.335,0,0,0,.248.349.478.478,0,0,0,.349.146v.292H112.56v-.292a.5.5,0,0,0,.349-.136,1.183,1.183,0,0,0,.247-.336,1.684,1.684,0,0,0,.146-.428,1.96,1.96,0,0,0,.045-.382V37.046a2.059,2.059,0,0,0-.045-.405,1.689,1.689,0,0,0-.146-.427,1.175,1.175,0,0,0-.247-.337.5.5,0,0,0-.349-.135v-.27h10.79Z" transform="translate(-8.598 -2.709)" fill="#fff"/></g></g></svg>