<svg xmlns="http://www.w3.org/2000/svg" xmlns:xlink="http://www.w3.org/1999/xlink" width="116.003" height="113.46" viewBox="0 0 116.003 113.46"><defs><clipPath id="a"><rect width="116.003" height="113.461" fill="#101010"/></clipPath></defs><g transform="translate(0 0)" clip-path="url(#a)"><path d="M35.17,37.562a4.367,4.367,0,0,1-.413,2.208A4.692,4.692,0,0,1,32.4,42.215a5.865,5.865,0,0,1-3.531.512,13.639,13.639,0,0,1-1.374-.323l-.535-.142c-.287-.075-.571-.157-.838-.244-.338-.114-.677-.236-1.015-.354l-.555-.193-.055-.02.031-.059c.1-.161.209-.315.327-.48l.122-.173A31.8,31.8,0,0,0,27.5,36.212c.405-.842.8-1.665,1.185-2.491q.425-.915.842-1.838c.264-.575.531-1.153.8-1.732.11-.232.224-.461.338-.693.091-.177.181-.358.268-.543a1.756,1.756,0,0,0,.106-.279l.043-.13a.578.578,0,0,1,.154.142,17.813,17.813,0,0,1,2.991,4.66,15.942,15.942,0,0,1,.862,3.066,4.628,4.628,0,0,1,.067.791c0,.13.008.26.016.4M16.447,43.037a.981.981,0,0,1-.157.043c-.173.035-.35.071-.523.1-.252.047-.5.094-.752.154a6.447,6.447,0,0,1-2.295.047,5.479,5.479,0,0,1-.976-.252l-.035-.012-.055-.024s.012-.024.047-.051a1.338,1.338,0,0,1,.779-.374H13.5a6.535,6.535,0,0,1,2.007.2,3.086,3.086,0,0,0,.516.091c.094.012.185.02.276.035a1.1,1.1,0,0,1,.146.039m23.009-4.668a14.418,14.418,0,0,0-.571-5.006,19.1,19.1,0,0,0-1.134-2.85,18.483,18.483,0,0,0-2.295-3.5c-.523-.642-1.1-1.256-1.653-1.846-.185-.2-.374-.4-.559-.6-.043-.047-.146-.157-.157-.173a1.5,1.5,0,0,1,.138-.224c.433-.653.886-1.326,1.271-2.027a1.925,1.925,0,0,0-.283-2.377,3,3,0,0,0-.681-.484,1.655,1.655,0,0,0-1.563-.067,3.09,3.09,0,0,0-1.378,1.2c-.189.311-.39.614-.586.917l-.154.236-.051.071a.427.427,0,0,1-.079-.039l-.114-.083c-.067-.047-.13-.091-.2-.134l-.35-.2c-.354-.209-.7-.413-1.059-.61-.15-.083-.3-.165-.441-.248-.512-.283-1.039-.583-1.582-.834-1.149-.535-2.338-1.035-3.361-1.46a15.748,15.748,0,0,0-1.594-.555c-.665-.2-1.346-.366-1.98-.52A6.013,6.013,0,0,0,16.38,16.9a6.221,6.221,0,0,0-2.338.945,3.42,3.42,0,0,0-1.657,3.271,12.577,12.577,0,0,0,.26,1.669,9.007,9.007,0,0,0,1.531,3.346,14.237,14.237,0,0,0,3.46,3.408c.307.216.626.417.937.61.256.161.52.327.771.5a6.333,6.333,0,0,0,1.637.779,2.059,2.059,0,0,0,2.362-.653,2.09,2.09,0,0,0,.52-1.574A1.916,1.916,0,0,0,23.1,27.88a6.221,6.221,0,0,0-1.082-.657,11.5,11.5,0,0,1-2.436-1.5,7.789,7.789,0,0,1-2.365-2.9,5.028,5.028,0,0,1-.5-1.929c0-.437.161-.634.575-.677a2.5,2.5,0,0,1,.842.043,9.169,9.169,0,0,1,.9.287c.169.059.338.118.508.173a21.021,21.021,0,0,1,3.086,1.35,29.127,29.127,0,0,1,4.995,3.243,1.748,1.748,0,0,1,.165.142c-.016.043-.055.13-.075.177q-.472,1.051-.952,2.094l-.323.708c-.276.594-.547,1.193-.823,1.787l-.5,1.075c-.134.287-.264.575-.394.858-.3.661-.61,1.342-.929,2-.362.756-.752,1.515-1.13,2.247l-.126.244a18.763,18.763,0,0,1-2.078,3.125c-.134.165-.157.165-.327.106s-.323-.106-.484-.165c-.228-.083-.468-.165-.712-.24-.59-.181-1.2-.346-1.807-.516a1.256,1.256,0,0,0-.283-.039l-.11-.012-.209-.02a2.052,2.052,0,0,1-.366-.051,8.761,8.761,0,0,0-2.2-.244c-.153,0-.291,0-.421-.008a6.393,6.393,0,0,0-3.2.6A5.831,5.831,0,0,0,8.465,40.4a3.52,3.52,0,0,0-.516.7,4.42,4.42,0,0,0-.425,2.578,2.29,2.29,0,0,0,.72,1.519,5.115,5.115,0,0,0,1.6,1.039,6.314,6.314,0,0,0,1.59.409l.279.043a9.84,9.84,0,0,0,1.326.154c.209.008.409.008.61.008a13.7,13.7,0,0,0,4.337-.61l.043-.012a12.961,12.961,0,0,0,1.507-.567c.527-.252,1.035-.555,1.527-.846l.193-.114a.433.433,0,0,1,.4-.075l1.008.382c.311.118.618.236.929.35.11.043.22.083.327.126a10.3,10.3,0,0,0,1,.342c.291.075.579.153.866.236a25.32,25.32,0,0,0,2.507.6,8.169,8.169,0,0,0,3.125.012c.165-.035.331-.059.5-.083.126-.02.248-.035.374-.059a2.8,2.8,0,0,0,.476-.118c.429-.165.886-.342,1.33-.535a8.573,8.573,0,0,0,2.857-2.007A8.942,8.942,0,0,0,39,40.565a7.784,7.784,0,0,0,.46-2.2" transform="translate(22.035 49.248)" fill="#101010"/><path d="M44.987,12.613a6.233,6.233,0,0,1-.323,2.436,10.789,10.789,0,0,1-1.354,2.672c-.276.4-.571.787-.866,1.173.118-.307.228-.6.335-.9.157-.441.311-.886.468-1.33.161-.464.327-.929.492-1.393.189-.516.39-1.067.61-1.606.142-.346.3-.7.461-1.035.055-.114.106-.232.161-.35,0,.063.008.126.008.189l.008.142M28.464,26.578a.912.912,0,0,0-.783.472,4.3,4.3,0,0,0-.37,1.031,3.967,3.967,0,0,0-.024,1.075,2.152,2.152,0,0,1-.551,1.594A5.718,5.718,0,0,1,24.524,32.4a1.631,1.631,0,0,1-2-.622,2.079,2.079,0,0,1-.252-.693,6.343,6.343,0,0,1-.087-.74l-.024-.291a7.689,7.689,0,0,1,.551-2.44,4.347,4.347,0,0,1,2.074-2.3A3.8,3.8,0,0,1,27.059,25a1.177,1.177,0,0,1,.933.645c.083.165.165.327.248.488.075.146.15.291.224.441M48.037,12.3a3.108,3.108,0,0,0-.236-.866,2.851,2.851,0,0,0-.85-1.173,3.465,3.465,0,0,0-1.421-.6,2.58,2.58,0,0,0-1.948.283A3.651,3.651,0,0,0,42.3,11.271a8.793,8.793,0,0,0-.827,1.657c-.15.449-.327.9-.5,1.334l-.2.512-.142.362c-.043.114-.091.228-.134.346-.071.185-.138.37-.2.555-.138.366-.272.736-.413,1.1-.106.268-.22.535-.331.8-.13.311-.26.622-.386.937-.15.4-.3.807-.433,1.2l-.189.539-.024.071c-.087.232-.169.468-.26.7-.146.382-.3.76-.449,1.137l-.279.708c-.051.13-.1.26-.15.39-.11.279-.22.571-.342.846a1.1,1.1,0,0,1-.272.346c-.244.224-.5.449-.76.661l-.134.114c-.169.142-.338.287-.5.429-.394.338-.8.689-1.216,1-.382.287-.791.559-1.185.823-.232.154-.464.311-.693.468a3.893,3.893,0,0,0-1.067.992,1.158,1.158,0,0,1-.445.331.235.235,0,0,1-.22.016.29.29,0,0,1-.142-.228c0-.047,0-.106,0-.173v-.079l0-.232a2.637,2.637,0,0,0-.319-1.586l.028-.012a3.324,3.324,0,0,0,.531-.236,1.47,1.47,0,0,0,.716-1.5,2.721,2.721,0,0,0-.374-1.075,4.13,4.13,0,0,0-2.645-1.85,9.59,9.59,0,0,0-1.724-.252l-.189-.016a5.1,5.1,0,0,0-1.85.26c-.146.039-.291.079-.437.114a5.7,5.7,0,0,0-1.913.992,6.894,6.894,0,0,0-1.858,2,8.284,8.284,0,0,0-1.122,2.787,6.644,6.644,0,0,0,.315,4.255A4.464,4.464,0,0,0,21.5,34.961a3.606,3.606,0,0,0,1.2.453c.114.016.232.035.346.051a5.784,5.784,0,0,0,1.141.106,5.859,5.859,0,0,0,2.909-1,7.879,7.879,0,0,0,2.047-1.854c.067-.094.11-.11.169-.114a7.889,7.889,0,0,0,.893-.075,5.747,5.747,0,0,0,2.121-.7c.307-.189.61-.386.905-.579.236-.157.472-.315.716-.464A6.542,6.542,0,0,0,35.1,29.9l-.035.1c-.035.106-.075.209-.11.311s-.067.177-.1.264l-.228.673c-.13.378-.256.76-.386,1.137-.091.256-.185.508-.276.764-.063.173-.13.35-.189.523l-1.059,3c-.059.173-.122.346-.181.52-.13.378-.264.764-.417,1.134l-.024.063a15.655,15.655,0,0,0-.736,2.039,4.2,4.2,0,0,0,.055,2.594,2.437,2.437,0,0,0,1.925,1.637,3.365,3.365,0,0,0,.661.067,3.9,3.9,0,0,0,1.59-.362A5.575,5.575,0,0,0,37.4,43.006a11.064,11.064,0,0,0,1.929-2.924l.153-.331a9.544,9.544,0,0,0,.571-1.405c.244-.85.453-1.724.653-2.566.067-.283.134-.567.2-.846a1.331,1.331,0,0,0,.031-.264l0-.1c.012-.11.02-.22.031-.331.024-.248.051-.508.055-.767a.736.736,0,0,1,.4-.657,13.142,13.142,0,0,0,1.6-1.271c.3-.272.622-.551.945-.807a2.768,2.768,0,0,0,.905-1.551,1.088,1.088,0,0,0-.244-1.023,1.168,1.168,0,0,0-1.023-.354,2.915,2.915,0,0,0-1.429.638c-.5.394-1.012.783-1.511,1.161-.291.224-.586.445-.878.669-.37.283-.732.571-1.1.858l-.134.11A1.542,1.542,0,0,0,38,32.356l-.043.429c-.059.551-.122,1.118-.138,1.681a5.834,5.834,0,0,1-.26,1.354c-.047.169-.094.335-.142.523a5.076,5.076,0,0,1-.224.779c-.169.425-.358.854-.539,1.267l-.153.35a6.725,6.725,0,0,1-1.661,2.35,1.343,1.343,0,0,1-.551.319,5.056,5.056,0,0,1,.185-.645c.126-.319.256-.634.386-.952.142-.342.283-.681.417-1.027q.348-.9.693-1.811l.311-.827c.11-.279.216-.563.323-.842s.22-.563.327-.846L38,31.62c.094-.236.185-.476.272-.712.13-.37.26-.736.394-1.106.161-.461.323-.921.492-1.382.1-.283.209-.563.319-.842.13-.338.26-.677.382-1.019a1.19,1.19,0,0,1,.338-.527c.335-.3.673-.594,1-.9a38.644,38.644,0,0,0,2.783-2.893,9.566,9.566,0,0,0,.7-.917c.272-.394.535-.787.8-1.185.126-.185.252-.374.378-.563.063-.094.13-.185.193-.279a7.889,7.889,0,0,0,.437-.673c.24-.433.453-.878.7-1.405.087-.193.165-.39.24-.579.059-.142.114-.287.177-.429a5.914,5.914,0,0,0,.366-1.452l.031-.185a8.334,8.334,0,0,0,.031-2.271" transform="translate(55.922 28.135)" fill="#101010"/><path d="M36.658,23.576c0-.1-.008-.2,0-.3a5.512,5.512,0,0,0-.417-2.381,7.117,7.117,0,0,0-1.885-2.586,6.289,6.289,0,0,0-3.145-1.527,5.807,5.807,0,0,0-3.94.783,9.466,9.466,0,0,0-3.145,3,31.6,31.6,0,0,0-2.535,4.554c-.37.791-.712,1.614-1.039,2.4l-.177.433c-.26.618-.457,1.137-.634,1.633-.189.543-.366,1.1-.543,1.645l-.209.642c-.063.2-.122.394-.181.59-.051.157-.1.311-.146.464l-.248.764c-.2.61-.405,1.244-.6,1.87-.094.319-.181.642-.264.956-.083.3-.161.6-.256.9-.079.256-.165.508-.248.76s-.185.539-.268.815c-.161.543-.37,1.259-.543,2-.2.811-.37,1.641-.535,2.444l0,.028a2.575,2.575,0,0,0-.039.645A2.022,2.022,0,0,0,17.2,45.944a1.861,1.861,0,0,0,2.051-.83,4.671,4.671,0,0,0,.626-1.606l.213-.862c.2-.764.382-1.523.586-2.283.079-.311.177-.63.272-.933.067-.216.138-.433.2-.649.087-.315.177-.634.264-.949.146-.523.291-1.063.461-1.59.386-1.256.8-2.59,1.252-3.9.484-1.389.886-2.444,1.295-3.416.508-1.2,1.078-2.4,1.629-3.554l.134-.272a13.064,13.064,0,0,1,1.641-2.621,5.487,5.487,0,0,1,1.531-1.393,1.668,1.668,0,0,1,1.228-.232,2.6,2.6,0,0,1,1.83,2.476c-.012.193-.024.4-.028.645a12.27,12.27,0,0,1-1.256,5.188,11.213,11.213,0,0,1-1.582,2.373,10.91,10.91,0,0,1-3.369,2.621,8.6,8.6,0,0,0-1.141.724,1.911,1.911,0,0,0-.606,2.554c.307.472.645.937.972,1.385l.1.142c.476.653.952,1.307,1.437,1.96l.626.842c.338.468.681.937,1.035,1.4.535.728,1.082,1.46,1.629,2.188l.138.181c.327.429.653.87,1,1.295a1.988,1.988,0,0,0,1.149.689,1.967,1.967,0,0,0,.461.051,2.416,2.416,0,0,0,2.082-1.212,1.5,1.5,0,0,0,.146-.724,2.034,2.034,0,0,0-.488-1.224c-.441-.567-.893-1.157-1.35-1.751-.567-.752-1.137-1.5-1.7-2.255l-1.271-1.688c-.165-.216-.331-.433-.5-.646-.22-.287-.441-.575-.649-.866l-.055-.079.067-.043a14.477,14.477,0,0,0,2.629-2.055,14.629,14.629,0,0,0,3.09-4.223,12.612,12.612,0,0,0,.984-2.5c.039-.165.094-.327.146-.5a5.367,5.367,0,0,0,.209-.815c.028-.209.067-.417.1-.626a12.66,12.66,0,0,0,.252-2.633Z" transform="translate(45.964 49.03)" fill="#101010"/><path d="M5.561,11.017A2.661,2.661,0,0,1,6.785,8.451a6.963,6.963,0,0,1,1.9-.913,21.42,21.42,0,0,1,3.613-.787l.527-.083,1.118-.177q.962-.148,1.925-.307l.527-.087c.649-.106,1.326-.213,1.976-.362.228-.051.457-.083.677-.114a4,4,0,0,0,1.122-.264,1.2,1.2,0,0,1,.37-.079l.134-.012a2.129,2.129,0,0,0,.787-.165,1.047,1.047,0,0,1,.4-.083h.028a.633.633,0,0,0,.4-.118.672.672,0,0,1,.26-.13c.122-.035.248-.071.37-.1.2-.055.409-.11.614-.177a1.183,1.183,0,0,0,.256-.138.634.634,0,0,1,.311-.122c.083-.039.165-.083.252-.13.866-.464,1.35-.724,1.921-.338a2.127,2.127,0,0,1,1.055,1,1.225,1.225,0,0,1,0,1.177c-.335.645-.673,1.287-1.012,1.933-.161.3-.327.606-.488.909-.346.638-.7,1.3-1.031,1.96-.382.768-.744,1.566-1.094,2.342-.118.268-.24.535-.362.8-.213.457-.417.909-.626,1.366-.3.645-.586,1.287-.886,1.929-.1.213-.2.425-.3.642-.327.7-.661,1.433-1.035,2.133-.807,1.507-1.657,3.031-2.48,4.5l-.453.811c-.189.335-.386.665-.579.98-.138.224-.276.453-.405.677a6.579,6.579,0,0,1-1.035,1.287,1.682,1.682,0,0,1-1.22.516,1.833,1.833,0,0,1-.457-.055A1.884,1.884,0,0,1,12.5,27.391a1.735,1.735,0,0,1,.216-1.4c.346-.571.7-1.141,1.063-1.708.484-.775.988-1.578,1.46-2.377.52-.882,1-1.807,1.464-2.7l.232-.445c.3-.579.618-1.216.992-2.011.445-.949.905-1.96,1.405-3.086.15-.335.291-.669.429-1.008.126-.3.248-.6.378-.9.307-.7.645-1.444,1.035-2.291.138-.3.283-.6.429-.905.091-.193.185-.386.276-.579l-.083.035-.091.035a1.587,1.587,0,0,1-.244.091c-.37.087-.764.177-1.169.256l-.26.055c-.83.169-1.692.342-2.543.5-.338.063-.677.114-1.019.165-.319.051-.638.1-.956.157-.531.1-1.059.2-1.586.307l-.925.177c-.2.039-.4.075-.6.11-.4.071-.811.142-1.2.24-.453.114-.913.256-1.358.4-.157.051-.315.1-.472.15a.437.437,0,0,0-.114.067c-.094.071-.1.11-.1.11s0,.028.063.087a3.172,3.172,0,0,0,.708.583c.413.216.858.409,1.283.6l.417.181c.142.067.291.126.437.185.252.106.508.213.76.338a3.514,3.514,0,0,1,.791.531,1.492,1.492,0,0,1,.209,1.956,1.972,1.972,0,0,1-2.137.8,14,14,0,0,1-3.074-1.326,17.187,17.187,0,0,1-1.626-1.149A3.389,3.389,0,0,1,5.765,11.8c-.02-.083-.047-.161-.071-.24a3,3,0,0,1-.134-.539" transform="translate(16.264 10.5)" fill="#101010"/><path d="M31.968,22.45l.016-.028L32,22.411c.087-.126.173-.252.256-.382a6.252,6.252,0,0,1,.988-1.236,4.306,4.306,0,0,1,2.46-1.236l.11-.016.079-.008.091-.008.153,0,.067.016a2.912,2.912,0,0,1,.484.157.381.381,0,0,1,.213.216.387.387,0,0,1-.051.315,2.012,2.012,0,0,1-.661.724,8.9,8.9,0,0,1-2.468,1.059c-.248.067-.5.134-.748.2l-.606.165-.047.012a1.148,1.148,0,0,1-.272.055l-.075,0m-11.4-8.891.035-.071c.193-.4.39-.807.571-1.216.193-.433.378-.87.563-1.307.2-.472.405-.96.618-1.437.362-.8.744-1.6,1.145-2.381a3.4,3.4,0,0,1,.468-.638l.012-.012c-.008.055-.012.114-.016.173a5.48,5.48,0,0,1-.134.937,11.667,11.667,0,0,1-1.275,3.054,29.857,29.857,0,0,1-1.988,2.9m22.887,9.7h0a1.937,1.937,0,0,0-2.121.142c-1.177.787-2.18,1.413-3.161,1.964a12.714,12.714,0,0,1-2.409,1.094,5.783,5.783,0,0,1-2.129.335l-.063,0a3.563,3.563,0,0,1-1.326-.248,1.507,1.507,0,0,1-.819-.893l-.008-.031.039-.008h.031a.52.52,0,0,0,.118-.012c.185-.028.37-.051.559-.079a12.165,12.165,0,0,0,1.326-.232,22.509,22.509,0,0,0,2.4-.74,8.446,8.446,0,0,0,2.582-1.452,3.974,3.974,0,0,0,1.586-3.456,2.991,2.991,0,0,0-1.24-2.271,4.257,4.257,0,0,0-1.645-.712,6.033,6.033,0,0,0-3.5.256,7.142,7.142,0,0,0-1.6.827,9.112,9.112,0,0,0-1.507,1.216,8.918,8.918,0,0,0-2.023,3.527.829.829,0,0,0-.035.2l-.012.079-.047.248a4.936,4.936,0,0,1-.134.586.62.62,0,0,1-.213.279,31.4,31.4,0,0,1-3.869,2.472,1.275,1.275,0,0,0-.126.067l.067-.122c.11-.2.22-.4.319-.6.173-.331.338-.665.5-1,.307-.614.626-1.248.96-1.862.165-.307.342-.61.52-.909a16.937,16.937,0,0,0,1.075-2.035,3.281,3.281,0,0,0,.213-1.936l-.008-.035a.631.631,0,0,0-.091-.272,1.915,1.915,0,0,0-2.173-.925,5.221,5.221,0,0,0-1.606.85c-.413.311-.819.626-1.228.945-.224.177-.453.354-.681.531l-2.35,1.818-.945.732c-.327.256-.653.508-.98.764-.362.283-.72.567-1.078.846l-.583.461.087-.189a6.527,6.527,0,0,0,.315-.74,3.134,3.134,0,0,1,.925-1.342c.563-.5,1.071-.96,1.543-1.476,1.082-1.173,2.133-2.354,3.294-3.668.405-.457.787-.925,1.134-1.393.575-.771,1.059-1.456,1.484-2.094a23.617,23.617,0,0,0,1.259-2.031,10.769,10.769,0,0,0,.787-2.078,7.621,7.621,0,0,0,.346-2.6A3.572,3.572,0,0,0,26.5,4.117a2.513,2.513,0,0,0-1.826-.988,3.97,3.97,0,0,0-1.854.342,2.689,2.689,0,0,0-1.362,1.055l-.252.394c-.315.488-.638.992-.917,1.511-.346.645-.669,1.315-.976,1.964-.1.209-.2.421-.3.63l-.087.177c-.272.567-.555,1.153-.815,1.736q-.449,1.015-.886,2.043c-.177.413-.358.83-.539,1.248-.13.3-.264.6-.4.905q-.319.714-.626,1.429-.23.549-.449,1.1c-.146.366-.291.728-.445,1.09l-.055.134a2.057,2.057,0,0,1-.413.712c-.964.933-2.047,1.795-3,2.554-.224.177-.457.346-.685.52s-.457.331-.677.508a1.473,1.473,0,0,0-.2,2.18,1.634,1.634,0,0,0,2.247.169l.02-.012q-.053.13-.118.26c-.063.142-.134.291-.189.445l-.035.1c-.2.539-.405,1.1-.575,1.661a1.554,1.554,0,0,0,.594,1.7,1.341,1.341,0,0,0,1.673.13l.075-.043a2.528,2.528,0,0,0,.291-.2c.248-.2.5-.4.744-.606.272-.216.539-.437.811-.653.563-.453,1.134-.9,1.7-1.35.693-.547,1.382-1.1,2.07-1.645q.679-.543,1.35-1.1l.52-.421q.85-.691,1.7-1.382c-.083.146-.165.3-.24.445-.161.323-.311.653-.461.972l-.126.272c-.118.264-.24.523-.362.783-.287.61-.583,1.244-.85,1.877a2.5,2.5,0,0,0-.063,1.881,2.122,2.122,0,0,0,1.972,1.421,2.241,2.241,0,0,0,.358-.031,8.193,8.193,0,0,0,1.543-.425c.539-.209,1.063-.472,1.566-.724l.256-.126c.429-.216.838-.453,1.185-.657s.665-.405,1.015-.626l.276-.169.075.11c.051.075.106.157.157.236.118.177.24.362.382.535a5.128,5.128,0,0,0,3.353,1.7,8.546,8.546,0,0,0,3.377-.287,15.013,15.013,0,0,0,1.83-.642l.122-.051a18.492,18.492,0,0,0,3.255-1.7,15.711,15.711,0,0,0,2.082-1.547,3.3,3.3,0,0,0,.657-.8,1.161,1.161,0,0,0-.527-1.61" transform="translate(27.441 9.139)" fill="#101010"/><path d="M60.361,96.379A2.335,2.335,0,0,0,58,94.069c-29.378,0-53.281-23.375-53.281-52.112A51.5,51.5,0,0,1,16.885,8.809a2.276,2.276,0,0,0-.315-3.251,2.4,2.4,0,0,0-3.326.315,55.821,55.821,0,0,0,3.743,76.2A58.293,58.293,0,0,0,58,98.689a2.335,2.335,0,0,0,2.362-2.31" transform="translate(0 14.771)" fill="#101010"/><path d="M73.138,100.574a2.38,2.38,0,0,1-1.8-.815,2.274,2.274,0,0,1,.276-3.255A51.594,51.594,0,0,0,90.464,56.728c0-28.736-23.9-52.112-53.281-52.112A54.19,54.19,0,0,0,10.628,11.54,2.389,2.389,0,0,1,7.4,10.69a2.284,2.284,0,0,1,.87-3.153A58.994,58.994,0,0,1,37.184,0,58.276,58.276,0,0,1,78.2,16.614,55.739,55.739,0,0,1,95.187,56.728a56.16,56.16,0,0,1-20.526,43.3,2.382,2.382,0,0,1-1.523.547" transform="translate(20.816 0)" fill="#101010"/><path d="M18.65,35.305c.488-.142,1.283-.409,2.019-.626,1.563-.453,2.55-.579,2.759-.642.189-.055-.008-1.287-.075-1.5s-1.189.012-1.665.15a15.155,15.155,0,0,0-1.917.756l-.031-.028c1.228-1.212,2.928-3.058,2.354-4.963a2.691,2.691,0,0,0-3.554-1.681,2.811,2.811,0,0,0-2.094,3.471c.3,1,1.039,1.472,1.216,1.421.15-.043,1.071-.945,1.019-1.114a.419.419,0,0,0-.114-.165,1.726,1.726,0,0,1-.39-.7A1.121,1.121,0,0,1,19,28.2,1.022,1.022,0,0,1,20.319,29c.464,1.441-1.858,3.664-2.613,5.188a.2.2,0,0,0-.028.169c.043.138.83.984.972.945" transform="translate(47.961 78.151)" fill="#101010"/><path d="M20.769,33.257a.212.212,0,0,1,.024-.169c.76-1.523,3.078-3.747,2.617-5.188a1.022,1.022,0,0,0-1.322-.807,1.123,1.123,0,0,0-.819,1.48,1.657,1.657,0,0,0,.39.7.464.464,0,0,1,.114.165c.051.169-.87,1.071-1.019,1.114-.177.051-.913-.417-1.216-1.417a2.81,2.81,0,0,1,2.094-3.475,2.693,2.693,0,0,1,3.554,1.681c.575,1.9-1.126,3.751-2.358,4.967l.035.024a15.158,15.158,0,0,1,1.917-.756c.476-.138,1.6-.366,1.665-.15s.26,1.452.075,1.5c-.209.063-1.2.189-2.763.645-.732.213-1.527.48-2.015.622-.142.043-.929-.807-.972-.945" transform="translate(57.032 74.91)" fill="#101010"/><path d="M22.594,32.786c-.933.433-1.846-.461-2.491-1.807-.63-1.315-.858-2.743.154-3.212.968-.445,1.826.421,2.468,1.755.685,1.433.886,2.8-.13,3.263m1.8-4.07c-.98-2.047-2.783-3.227-4.751-2.318-2.161.992-2.173,3.377-1.212,5.376,1.035,2.165,2.913,3.22,4.774,2.362,2.035-.937,2.255-3.192,1.189-5.42" transform="translate(52.315 76.589)" fill="#101010"/><path d="M13.085,26.525c.079-.11.153-.22.228-.331a5.721,5.721,0,0,1,1-1.232,4.072,4.072,0,0,1,2.409-1.09,1.562,1.562,0,0,1,.9.173.4.4,0,0,1,.232.3l-.024.087a.6.6,0,0,1-.059.169,1.976,1.976,0,0,1-.653.661,8.276,8.276,0,0,1-2.314.893l-.122.028c-.382.091-.764.181-1.149.268a3.182,3.182,0,0,1-.445.075Zm35.84-8.785h0a1.91,1.91,0,0,0-1.665-.98c-.287,0-.586-.012-.874-.024-.122,0-.248-.012-.366-.016l-.063,0,.028-.059.047-.083a1.591,1.591,0,0,0,.11-.216c.22-.567.445-1.137.661-1.7l.142-.374c.189-.5.386-1,.559-1.515a5.794,5.794,0,0,0,.236-1.071,1.226,1.226,0,0,0-.338-.964,1.634,1.634,0,0,0-1.082-.594,1.435,1.435,0,0,0-1.366.8,4.309,4.309,0,0,0-.291.685c-.035.1-.067.193-.106.287-.138.358-.279.72-.413,1.082-.1.248-.193.5-.287.744-.1.279-.209.555-.315.83-.083.213-.165.429-.252.642-.142.362-.287.728-.421,1.09-.106.287-.106.291-.405.276l-.661-.035c-.449-.02-.9-.043-1.346-.063a2.257,2.257,0,0,0-.559.028,1.547,1.547,0,0,0-1.177.9,1.457,1.457,0,0,0,.22,1.405,1.675,1.675,0,0,0,1.224.689c.346.031.7.043,1.035.059l.338.012.02,0v0c-.012.043-.024.087-.031.13-.024.087-.043.173-.075.256l-.2.531c-.256.7-.523,1.425-.8,2.129a3.138,3.138,0,0,1-1.019,1.405c-.768.575-1.574,1.165-2.4,1.759-.311.224-.626.441-.941.661s-.638.441-.949.669c-.213.15-.409.315-.6.472-.087.071-.173.138-.26.209l-.047.043c-.047.039-.094.079-.146.114-.669.421-1.342.842-2.011,1.256a.74.74,0,0,0,.051-.157c.024-.146.051-.287.079-.433a8.018,8.018,0,0,0,.177-1.311,17.667,17.667,0,0,0-.094-2.1l0-.035a20.2,20.2,0,0,1-.075-2.645,7.412,7.412,0,0,1,.382-2.121c.071-.2.15-.409.224-.61.1-.26.2-.516.283-.775a1.532,1.532,0,0,0-.323-1.61,1.551,1.551,0,0,0-1.523-.555,1.574,1.574,0,0,0-1.13.937c-.1.224-.181.457-.256.685l-.024.063c-.047.138-.091.283-.13.429a4.377,4.377,0,0,1-.264.736,13.553,13.553,0,0,1-1.822,2.787c-.189.216-.382.437-.571.657-.59.685-1.2,1.393-1.83,2.058a11.731,11.731,0,0,1-1.118,1c-.138.114-.276.232-.413.346s-.287.252-.429.382a6.572,6.572,0,0,1-1.134.886c-.374.213-.74.433-1.11.649-.642.382-1.307.779-1.984,1.126a11.125,11.125,0,0,1-1.964.823,3.546,3.546,0,0,1-.366.087c-.173.039-.354.079-.531.138a3.813,3.813,0,0,1-1.472.114c-.094,0-.185-.012-.276-.012a2.741,2.741,0,0,1-1.051-.264,1.508,1.508,0,0,1-.787-.823l-.039-.1c.028,0,.067-.012.126-.016.118-.012.24-.024.362-.031a12.644,12.644,0,0,0,1.429-.177c.642-.13,1.283-.311,1.9-.484l.307-.087a5.272,5.272,0,0,0,.649-.24l.169-.071a6.433,6.433,0,0,0,2.421-1.578,3.667,3.667,0,0,0,.744-1.118,4.068,4.068,0,0,0,.216-1.7,2.768,2.768,0,0,0-.807-1.826,4.1,4.1,0,0,0-2.4-1.2,6.116,6.116,0,0,0-4.05.681,7.319,7.319,0,0,0-2.657,2.3,7.241,7.241,0,0,0-.984,1.933,1.343,1.343,0,0,1-.685.968,1.544,1.544,0,0,0-.287.173l-.094.063a2.189,2.189,0,0,0-.8.819A1.344,1.344,0,0,0,8.055,29a1.1,1.1,0,0,0,.63.606,4.012,4.012,0,0,0,.74.2c.1.016.1.02.114.071a2.441,2.441,0,0,0,.091.272,1.926,1.926,0,0,1,.091.3,3.361,3.361,0,0,0,.791,1.5,5.205,5.205,0,0,0,3.416,1.8,5.713,5.713,0,0,0,.929.071,10.9,10.9,0,0,0,1.456-.118,11.92,11.92,0,0,0,2.306-.6,21.238,21.238,0,0,0,2.306-1.019l.094-.043a14.285,14.285,0,0,0,2.822-1.807,2.973,2.973,0,0,1,.346-.24l.118-.071c.114-.071.228-.138.342-.2a6.767,6.767,0,0,0,.716-.468,25.842,25.842,0,0,0,3.164-3.168,4.909,4.909,0,0,0,.319-.4c.059-.079.122-.157.177-.232l.016.386c.008.3.02.594.024.89l.012.264a2.385,2.385,0,0,1-.02.634,9.907,9.907,0,0,1-.567,1.8,2.659,2.659,0,0,1-1.448,1.448,1.146,1.146,0,0,1-.945-.031c-.173-.083-.346-.185-.492-.268a1.5,1.5,0,0,0-1.775.1,1.361,1.361,0,0,0-.523.972,1.213,1.213,0,0,0,.35.956,2.624,2.624,0,0,0,.665.512,7.38,7.38,0,0,0,1.082.405,4.6,4.6,0,0,0,1.795.236c.488-.043.886-.094,1.256-.161l.2-.035a10.293,10.293,0,0,0,1.354-.3c.712-.232,1.413-.516,2.094-.787l.059-.028a17.06,17.06,0,0,0,3.145-1.661l.264-.177c.382-.252.771-.512,1.169-.74a15.106,15.106,0,0,0,1.472-.909,5.33,5.33,0,0,0-.457,1.228l-.016.071a5.346,5.346,0,0,0-.15,1.126,2.194,2.194,0,0,0,.764,1.645,1.785,1.785,0,0,0,1.244.512,5.115,5.115,0,0,0,1.177-.169,8.4,8.4,0,0,0,1.689-.645,15.425,15.425,0,0,0,3.29-2.177,11.26,11.26,0,0,0,.968-1.023l.059-.063A.915.915,0,0,0,46.9,28.5a2.005,2.005,0,0,0-.264-.527,1.448,1.448,0,0,0-1.74-.579,3.232,3.232,0,0,0-.756.433c-.555.421-1.086.854-1.484,1.185a8.079,8.079,0,0,1-1.771,1.2l-.075.039-.094.043.024-.047.02-.035a3.709,3.709,0,0,0,.189-.4c.11-.279.216-.559.323-.838.071-.189.146-.382.22-.571.122-.311.244-.622.37-.937.15-.386.3-.768.453-1.157.276-.7.543-1.413.811-2.121l.028-.075c.142-.37.279-.744.417-1.114.173-.464.346-.925.523-1.385.118-.307.24-.61.362-.917.118-.291.236-.586.35-.878.035-.1.059-.118.193-.11.516.031,1.082.055,1.728.075.382.008.756,0,1.122-.012a1.364,1.364,0,0,0,1.075-2.027" transform="translate(23.417 29.751)" fill="#101010"/><path d="M21.485,29.336A5.544,5.544,0,0,1,18.313,33.1a9.872,9.872,0,0,1-2.535.949,12.513,12.513,0,0,1-2.72.346c-.059,0-.118,0-.173,0-.653-.012-1.3-.083-1.933-.154l-.374-.043a7.419,7.419,0,0,1-2.055-.59,1.6,1.6,0,0,1-1.031-1.437,1.57,1.57,0,0,1,.89-1.539,1.834,1.834,0,0,1,1.287-.177c.291.071.586.134.882.193l.37.079.067.012.315.016a17.9,17.9,0,0,0,3.149,0,5.354,5.354,0,0,0,2.625-.905,2.315,2.315,0,0,0,.736-.764,1.328,1.328,0,0,0-.268-1.692,2.454,2.454,0,0,0-.949-.563c-.161-.055-.315-.118-.464-.185-.091-.039-.185-.079-.276-.114-.216-.083-.429-.165-.645-.244q-.614-.23-1.228-.472a4.178,4.178,0,0,1-.7-.37,1.777,1.777,0,0,1-.791-1.456,3.011,3.011,0,0,1,.956-2.389,5.038,5.038,0,0,1,1.405-.925c.283-.142.579-.272.866-.4.256-.11.508-.224.76-.342a7.2,7.2,0,0,0,2.031-1.358,3.305,3.305,0,0,0,1-2.33,17.132,17.132,0,0,0-.075-1.9,2.248,2.248,0,0,0-.185-.681,1.488,1.488,0,0,0-1.358-.886,2.783,2.783,0,0,0-2.33.952,7.376,7.376,0,0,0-1.5,2.232c-.5,1.067-.917,1.968-1.322,2.881-.457,1.023-.9,2.051-1.346,3.082l-.476,1.1q-.673,1.541-1.338,3.09l-.893,2.066q-.508,1.187-1.023,2.369c-.425.964-.85,1.917-1.271,2.83a1.736,1.736,0,0,1-2.114.913A1.588,1.588,0,0,1,3.14,32.812a1.554,1.554,0,0,1,.106-.614c.15-.366.307-.732.464-1.1.122-.279.24-.559.358-.842.067-.157.13-.323.189-.484.079-.213.161-.433.26-.645.13-.3.272-.59.413-.882.122-.252.244-.5.358-.76q.307-.673.6-1.346c.2-.453.4-.9.606-1.35s.417-.905.626-1.358c.2-.429.405-.862.6-1.295.154-.335.3-.673.449-1.012.134-.315.272-.63.413-.941.209-.453.417-.9.626-1.35.193-.413.386-.823.575-1.236.122-.268.24-.535.358-.8.161-.358.323-.728.5-1.09a13.428,13.428,0,0,1,1.224-2.051,11.134,11.134,0,0,1,1.185-1.429,9.759,9.759,0,0,1,1.57-1.2,5.8,5.8,0,0,1,1.472-.618l.37-.118a2.274,2.274,0,0,1,.586-.094,6.571,6.571,0,0,1,3.125.551,4.8,4.8,0,0,1,2.44,2.4,6.224,6.224,0,0,1,.362,4.227,10.717,10.717,0,0,1-.508,1.555,7.263,7.263,0,0,1-2.058,2.621A11.439,11.439,0,0,1,17.9,23.11a4.008,4.008,0,0,1-.555.213l-.13.043.016,0,.039.012a8.834,8.834,0,0,1,1.933.89,4.816,4.816,0,0,1,1.846,1.83,4.531,4.531,0,0,1,.437,3.235" transform="translate(9.215 29.914)" fill="#101010"/><path d="M22.838,32.807a.185.185,0,0,1,.008-.169c.622-1.582,2.739-4,2.153-5.4a1.025,1.025,0,0,0-1.389-.685,1.119,1.119,0,0,0-.689,1.543,1.7,1.7,0,0,0,.453.669.434.434,0,0,1,.126.153c.067.169-.771,1.145-.917,1.2-.169.067-.945-.335-1.334-1.307a2.814,2.814,0,0,1,1.783-3.645,2.689,2.689,0,0,1,3.684,1.366c.744,1.846-.787,3.834-1.909,5.152l.035.024a14.333,14.333,0,0,1,1.842-.921c.461-.177,1.566-.5,1.649-.3s.382,1.425.2,1.492c-.2.079-1.181.291-2.692.882-.72.276-1.488.614-1.96.8-.138.051-.992-.724-1.047-.858" transform="translate(61.839 73.159)" fill="#101010"/></g></svg>