<svg xmlns="http://www.w3.org/2000/svg" xmlns:xlink="http://www.w3.org/1999/xlink" width="95.656" height="19.873" viewBox="0 0 95.656 19.873"><defs><clipPath id="a"><rect width="95.656" height="19.873" fill="#080000"/></clipPath></defs><g transform="translate(0 0)"><g transform="translate(0 0)" clip-path="url(#a)"><path d="M18.059.109H11.516L9.1,11.327,6.808.109H.3V.428H1.837V17.346a2.226,2.226,0,0,1-.359,1.329,1.73,1.73,0,0,1-1.479.5v.319H4.547v-.319h-.3a1.442,1.442,0,0,1-1.4-.622,4.036,4.036,0,0,1-.333-1.849V1.068L6.084,19.495H8.031L11.914,1.068V19.176H10.38v.319h7.679v-.319H16.524V.428h1.534Z" transform="translate(0 0.144)" fill="#080000"/><path d="M8.053.109V.428H9.587V19.176H8.053v.319H20.74V11.413h-.622a13.356,13.356,0,0,1-1.686,5.67,4.548,4.548,0,0,1-4.249,2.093V9.7a2.264,2.264,0,0,1,1.9.752,4.919,4.919,0,0,1,.894,1.786,17.976,17.976,0,0,1,.382,2.345h.559v-10h-.559l-.1.582a6.73,6.73,0,0,1-1.225,3.483,2.409,2.409,0,0,1-1.849.7V.428h.824a4.163,4.163,0,0,1,4.247,2.994,14.131,14.131,0,0,1,.864,4.065h.622V.109Z" transform="translate(10.697 0.144)" fill="#080000"/><path d="M21.649.612a1.315,1.315,0,0,1,.848.536,2.1,2.1,0,0,1,.233,1.083V7.516a2.667,2.667,0,0,1-.352,1.5c-.231.342-.8.512-1.7.512H19.8V.456a8.07,8.07,0,0,1,1.844.156M13.674.456h1.534v18.72H13.674v.319h7.667v-.319H19.8V9.844a5.682,5.682,0,0,1,2.375.312c.368.207.549.668.549,1.376v5.437a2.928,2.928,0,0,0,.661,1.986,3.546,3.546,0,0,0,2.71.773q3.632-.248,3.635-3.434h-.664a1,1,0,0,1,.049.354,3.213,3.213,0,0,1-.387,1.427,1.3,1.3,0,0,1-1.248.78c-.342,0-.512-.154-.512-.468V14.377a4.248,4.248,0,0,0-1.336-3.453A7.071,7.071,0,0,0,21.8,9.7a12.758,12.758,0,0,0,2.659-.817,5.979,5.979,0,0,0,2.128-1.56,3.684,3.684,0,0,0,.894-1.958,4.456,4.456,0,0,0-2.361-4.009A10.06,10.06,0,0,0,19.8.109H13.674Z" transform="translate(18.164 0.144)" fill="#080000"/><path d="M30.758.235l-1.837,1.22A4.277,4.277,0,0,0,25.652,0a5.362,5.362,0,0,0-3.358,1.348,6.053,6.053,0,0,0-1.716,2.605,12.424,12.424,0,0,0-.442,1.94,16.266,16.266,0,0,0-.182,1.984q-.038.936-.037,2.326v.9a15.4,15.4,0,0,0,1.094,6q1.093,2.609,4.64,2.75a4.682,4.682,0,0,0,3.753-1.476A6.872,6.872,0,0,0,31,15.151a18.587,18.587,0,0,0,.328-3.462h-.573v.582a13.005,13.005,0,0,1-.882,4.5,3.834,3.834,0,0,1-3.253,2.706q-1.222,0-1.586-.692a4.358,4.358,0,0,1-.361-1.984V2.938c0-.1-.012-.27-.026-.51S24.627,2,24.627,1.86a2.814,2.814,0,0,1,.147-.9c.184-.424.664-.638,1.437-.638A2.994,2.994,0,0,1,28.567,1.8a10.885,10.885,0,0,1,1.446,3.069,18.9,18.9,0,0,1,.645,2.775l.1.47h.573V.235Z" transform="translate(26.457 -0.001)" fill="#080000"/><path d="M27.054,15.139,29.4,5.078,31.19,15.139ZM29.965.109,25.918,17.288l-.149.612a2.528,2.528,0,0,1-.468.931,1.36,1.36,0,0,1-1.069.345h-.3v.319h4.4v-.319h-.314q-1.537,0-1.537-1.162a3.119,3.119,0,0,1,.114-.7l.4-1.858h4.247l.624,3.718h-1.9v.319H38v-.319H36.456L32.875.109Z" transform="translate(31.79 0.144)" fill="#080000"/><path d="M37.826.658a1.009,1.009,0,0,1,.65,1.076V17.9a.981.981,0,0,1-.65,1.052,8.02,8.02,0,0,1-2.275.224V.428a7.7,7.7,0,0,1,2.275.231M35.552,19.495a16.309,16.309,0,0,0,2.559-.142A5.027,5.027,0,0,0,41.7,17.26a7.893,7.893,0,0,0,1.318-3.239,27.8,27.8,0,0,0,.27-4.2V8.973a17.358,17.358,0,0,0-.629-4.927A5.182,5.182,0,0,0,39.9.833,10.113,10.113,0,0,0,35.552.109H29.421V.428h1.534V19.176H29.421v.319Z" transform="translate(39.082 0.144)" fill="#080000"/><path d="M40.458,2.228c-.014-.179-.026-.321-.026-.426q0-1.449,1.539-1.483a1.557,1.557,0,0,1,1.171.319,1.345,1.345,0,0,1,.363,1.08c0,.112-.007.27-.026.468s-.023.333-.023.4V17.265c0,.1.007.247.023.461s.026.377.026.5a1.223,1.223,0,0,1-.363.994,1.572,1.572,0,0,1-1.171.319q-1.537-.035-1.539-1.483c0-.1.012-.247.026-.426s.026-.3.026-.361V2.589c0-.061-.007-.182-.026-.361m7.807,6.55a19.924,19.924,0,0,0-.4-4.063,6.5,6.5,0,0,0-1.809-3.306A5.524,5.524,0,0,0,41.972,0a5.437,5.437,0,0,0-4.908,2.44A8.379,8.379,0,0,0,35.913,5.8a35.693,35.693,0,0,0-.237,4.433,19.053,19.053,0,0,0,.71,5.728,6.15,6.15,0,0,0,1.93,2.682,5.462,5.462,0,0,0,3.656,1.213,5.533,5.533,0,0,0,3.69-1.227,5.628,5.628,0,0,0,1.879-2.668,19.032,19.032,0,0,0,.724-5.728Z" transform="translate(47.391 -0.001)" fill="#080000"/></g></g></svg>