<svg xmlns="http://www.w3.org/2000/svg" xmlns:xlink="http://www.w3.org/1999/xlink" width="137.8" height="85.78" viewBox="0 0 137.8 85.78"><defs><clipPath id="a"><rect width="137.8" height="85.78" fill="none"/></clipPath></defs><g transform="translate(0 0)" clip-path="url(#a)"><path d="M21.049,3.021h-.218a3.666,3.666,0,0,0-.126-.915,2.342,2.342,0,0,0-.453-.881,2.5,2.5,0,0,0-.881-.66A3.256,3.256,0,0,0,17.965.3H16.152v13.91a1.618,1.618,0,0,0,.037.307,1.384,1.384,0,0,0,.118.347,1.048,1.048,0,0,0,.2.279.374.374,0,0,0,.279.118V15.5H13.34v-.238a.376.376,0,0,0,.281-.118,1.1,1.1,0,0,0,.2-.279,1.384,1.384,0,0,0,.118-.347,1.617,1.617,0,0,0,.037-.307V.3h-1.8a3.513,3.513,0,0,0-1.486.264,2.3,2.3,0,0,0-.872.66,2.127,2.127,0,0,0-.408.881,4.436,4.436,0,0,0-.1.915H9.079V.083h11.97Z" transform="translate(10.709 0.098)"/><path d="M27.856.3a.4.4,0,0,0-.281.109.926.926,0,0,0-.2.272,1.193,1.193,0,0,0-.118.344,1.529,1.529,0,0,0-.037.325v12.86a1.458,1.458,0,0,0,.037.307,1.229,1.229,0,0,0,.118.347,1.145,1.145,0,0,0,.2.281.382.382,0,0,0,.281.116V15.5H24.41v-.238a.393.393,0,0,0,.281-.109.92.92,0,0,0,.2-.27,1.369,1.369,0,0,0,.118-.344,1.632,1.632,0,0,0,.035-.31V4.834H18.878v9.377a1.618,1.618,0,0,0,.037.307,1.384,1.384,0,0,0,.118.347,1.144,1.144,0,0,0,.2.281.389.389,0,0,0,.281.116V15.5H16.069v-.238a.393.393,0,0,0,.281-.109.915.915,0,0,0,.2-.27,1.369,1.369,0,0,0,.118-.344,1.658,1.658,0,0,0,.037-.31V1.352a1.685,1.685,0,0,0-.037-.325,1.34,1.34,0,0,0-.118-.344.926.926,0,0,0-.2-.272A.4.4,0,0,0,16.069.3V.083h3.444V.3a.41.41,0,0,0-.281.109.926.926,0,0,0-.2.272,1.34,1.34,0,0,0-.118.344,1.685,1.685,0,0,0-.037.325V4.617h6.166V1.352a1.669,1.669,0,0,0-.035-.325,1.34,1.34,0,0,0-.118-.344.931.931,0,0,0-.2-.272A.4.4,0,0,0,24.41.3V.083h3.446Z" transform="translate(18.955 0.098)"/><path d="M31.681,3.021h-.22a3.568,3.568,0,0,0-.126-.915,2.311,2.311,0,0,0-.453-.881A2.5,2.5,0,0,0,30,.565,3.256,3.256,0,0,0,28.6.3H25.786V4.617H28.6a1,1,0,0,0,.554-.135.915.915,0,0,0,.318-.336,1.337,1.337,0,0,0,.146-.416,2.375,2.375,0,0,0,.035-.381h.218V6.105h-.218a1.555,1.555,0,0,0-.054-.381,1.288,1.288,0,0,0-.19-.418,1.135,1.135,0,0,0-.362-.333,1.094,1.094,0,0,0-.573-.137H25.786V15.262H28.6A3.561,3.561,0,0,0,30.084,15a2.275,2.275,0,0,0,.87-.663,2.092,2.092,0,0,0,.408-.878,4.456,4.456,0,0,0,.1-.918h.22V15.5H22.974v-.238a.393.393,0,0,0,.281-.109.92.92,0,0,0,.2-.27,1.461,1.461,0,0,0,.118-.344,1.632,1.632,0,0,0,.035-.31V1.352a1.707,1.707,0,0,0-.035-.327,1.444,1.444,0,0,0-.118-.342.9.9,0,0,0-.2-.272A.4.4,0,0,0,22.974.3V.083h8.707Z" transform="translate(27.1 0.098)"/><path d="M37.24,7.029a6.777,6.777,0,0,1,1.894.362,4.911,4.911,0,0,1,1.532.852A3.9,3.9,0,0,1,41.69,9.549a3.829,3.829,0,0,1,.373,1.7,3.678,3.678,0,0,1-.416,1.759,4.188,4.188,0,0,1-1.125,1.334,5.2,5.2,0,0,1-1.652.852,6.644,6.644,0,0,1-2.012.3H30.546v-.235a.4.4,0,0,0,.281-.109.911.911,0,0,0,.2-.27,1.384,1.384,0,0,0,.118-.347,1.617,1.617,0,0,0,.037-.307V1.352a1.725,1.725,0,0,0-.037-.327,1.324,1.324,0,0,0-.118-.342.868.868,0,0,0-.2-.272A.393.393,0,0,0,30.546.3V.083h4.989A6.583,6.583,0,0,1,37.4.336a4.605,4.605,0,0,1,1.467.717,3.148,3.148,0,0,1,1.288,2.6,3.064,3.064,0,0,1-.789,2.14A4.314,4.314,0,0,1,37.24,7.029m-3.882-.02h2.177a1.861,1.861,0,0,0,1.059-.3,2.5,2.5,0,0,0,.735-.769,3.529,3.529,0,0,0,.427-1.072,5.521,5.521,0,0,0,0-2.428,3.637,3.637,0,0,0-.427-1.079,2.353,2.353,0,0,0-.735-.772A1.89,1.89,0,0,0,35.535.3H33.358Zm3.5,8.252a2.318,2.318,0,0,0,1.277-.353,2.971,2.971,0,0,0,.918-.924A4.571,4.571,0,0,0,39.6,12.7a5.581,5.581,0,0,0,0-2.9,4.544,4.544,0,0,0-.551-1.288,2.925,2.925,0,0,0-.918-.924,2.3,2.3,0,0,0-1.277-.355h-3.5v8.034Z" transform="translate(36.032 0.098)"/><path d="M46.032,3.021h-.218a3.568,3.568,0,0,0-.126-.915,2.311,2.311,0,0,0-.453-.881,2.5,2.5,0,0,0-.881-.66A3.256,3.256,0,0,0,42.948.3H40.139V4.617h2.809a1.01,1.01,0,0,0,.554-.135.934.934,0,0,0,.318-.336,1.337,1.337,0,0,0,.146-.416A2.375,2.375,0,0,0,44,3.348h.218V6.105H44a1.555,1.555,0,0,0-.054-.381,1.289,1.289,0,0,0-.19-.418,1.135,1.135,0,0,0-.362-.333,1.094,1.094,0,0,0-.573-.137H40.139V15.262h2.809A3.561,3.561,0,0,0,44.437,15a2.292,2.292,0,0,0,.87-.663,2.092,2.092,0,0,0,.408-.878,4.455,4.455,0,0,0,.1-.918h.218V15.5H37.327v-.238a.393.393,0,0,0,.281-.109.92.92,0,0,0,.2-.27,1.461,1.461,0,0,0,.118-.344,1.633,1.633,0,0,0,.035-.31V1.352a1.708,1.708,0,0,0-.035-.327,1.445,1.445,0,0,0-.118-.342.9.9,0,0,0-.2-.272A.4.4,0,0,0,37.327.3V.083h8.705Z" transform="translate(44.03 0.098)"/><path d="M44.669,2.812a2.26,2.26,0,0,0,.617,1.6,6.566,6.566,0,0,0,1.541,1.2q.925.533,2.005,1.033a13.907,13.907,0,0,1,2,1.133,6.141,6.141,0,0,1,1.541,1.5,3.5,3.5,0,0,1,.617,2.1,4,4,0,0,1-.445,1.929,4.243,4.243,0,0,1-1.168,1.38,5.173,5.173,0,0,1-1.624.826,6.215,6.215,0,0,1-1.8.27A5.637,5.637,0,0,1,45.8,15.39a5.419,5.419,0,0,1-1.615-1,4.439,4.439,0,0,1-1.016-1.343,3.235,3.235,0,0,1-.353-1.406,1.015,1.015,0,0,1,.246-.7.919.919,0,0,1,1.323,0,1.024,1.024,0,0,1,.244.7,6.023,6.023,0,0,0,.192,1.569,3.339,3.339,0,0,0,.6,1.234,2.781,2.781,0,0,0,1.033.806,3.536,3.536,0,0,0,1.5.29,4.383,4.383,0,0,0,1.5-.244,3.614,3.614,0,0,0,1.162-.663,3.012,3.012,0,0,0,.752-.979,2.719,2.719,0,0,0,.272-1.2,2.3,2.3,0,0,0-.617-1.615,6.952,6.952,0,0,0-1.541-1.231q-.925-.562-2-1.081a14.343,14.343,0,0,1-2.005-1.16,6.342,6.342,0,0,1-1.541-1.5,3.418,3.418,0,0,1-.617-2.066,3.485,3.485,0,0,1,.307-1.434A3.684,3.684,0,0,1,44.5,1.162a4.427,4.427,0,0,1,1.36-.843A4.6,4.6,0,0,1,47.588,0a5.693,5.693,0,0,1,1.724.255,5.083,5.083,0,0,1,1.369.652,3.353,3.353,0,0,1,.9.9,1.762,1.762,0,0,1,.327.968,1.036,1.036,0,0,1-.244.7.921.921,0,0,1-1.325,0,1.026,1.026,0,0,1-.244-.7A3.085,3.085,0,0,0,49.9,1.641a2.134,2.134,0,0,0-.534-.8,2.236,2.236,0,0,0-.8-.471,3.043,3.043,0,0,0-.981-.155A3.377,3.377,0,0,0,46.465.4a2.752,2.752,0,0,0-.926.525,2.6,2.6,0,0,0-.634.815,2.363,2.363,0,0,0-.235,1.07" transform="translate(50.509 0)"/><path d="M60.622,3.021H60.4a3.667,3.667,0,0,0-.126-.915,2.342,2.342,0,0,0-.453-.881,2.5,2.5,0,0,0-.881-.66A3.256,3.256,0,0,0,57.538.3H55.725v13.91a1.618,1.618,0,0,0,.037.307,1.384,1.384,0,0,0,.118.347,1.048,1.048,0,0,0,.2.279.374.374,0,0,0,.279.118V15.5H52.913v-.238a.376.376,0,0,0,.281-.118,1.1,1.1,0,0,0,.2-.279,1.384,1.384,0,0,0,.118-.347,1.617,1.617,0,0,0,.037-.307V.3h-1.8a3.513,3.513,0,0,0-1.486.264,2.3,2.3,0,0,0-.872.66,2.127,2.127,0,0,0-.408.881,4.436,4.436,0,0,0-.1.915h-.235V.083h11.97Z" transform="translate(57.389 0.098)"/><path d="M21.4,38.684a21.771,21.771,0,0,1,6.059,1.16,15.694,15.694,0,0,1,4.9,2.727,12.5,12.5,0,0,1,3.276,4.176,12.255,12.255,0,0,1,1.19,5.451,11.732,11.732,0,0,1-1.334,5.626,13.382,13.382,0,0,1-3.6,4.263,16.7,16.7,0,0,1-5.277,2.727,21.23,21.23,0,0,1-6.438.957H0v-.754a1.274,1.274,0,0,0,.9-.349,2.98,2.98,0,0,0,.639-.87,4.5,4.5,0,0,0,.377-1.1,5.269,5.269,0,0,0,.116-.987V20.53a5.484,5.484,0,0,0-.116-1.044,4.5,4.5,0,0,0-.377-1.1,2.98,2.98,0,0,0-.639-.87,1.274,1.274,0,0,0-.9-.349v-.7H15.948a20.885,20.885,0,0,1,5.974.811,14.852,14.852,0,0,1,4.7,2.291A10.065,10.065,0,0,1,30.739,27.9a9.812,9.812,0,0,1-2.524,6.842A13.779,13.779,0,0,1,21.4,38.684M8.989,38.627h6.959a5.946,5.946,0,0,0,3.394-.957A7.944,7.944,0,0,0,21.689,35.2a11.194,11.194,0,0,0,1.364-3.422,17.531,17.531,0,0,0,0-7.77,11.592,11.592,0,0,0-1.364-3.45A7.553,7.553,0,0,0,19.342,18.1a6.069,6.069,0,0,0-3.394-.929H8.989ZM20.183,65.016a7.431,7.431,0,0,0,4.089-1.131A9.534,9.534,0,0,0,27.2,60.927a14.658,14.658,0,0,0,1.768-4.119,17.883,17.883,0,0,0,.61-4.61,18.13,18.13,0,0,0-.61-4.669A14.644,14.644,0,0,0,27.2,43.412a9.565,9.565,0,0,0-2.929-2.96,7.448,7.448,0,0,0-4.089-1.129H8.989V65.016Z" transform="translate(0 19.43)"/><path d="M45.267,25.868h-.7a11.584,11.584,0,0,0-.405-2.929,7.433,7.433,0,0,0-1.452-2.814A8.007,8.007,0,0,0,39.9,18.009a10.488,10.488,0,0,0-4.494-.841H26.418v13.8h8.991a3.2,3.2,0,0,0,1.768-.434,2.984,2.984,0,0,0,1.016-1.075,4.194,4.194,0,0,0,.462-1.332,7.447,7.447,0,0,0,.118-1.218h.7v8.814h-.7a5.154,5.154,0,0,0-.174-1.218,4.184,4.184,0,0,0-.608-1.332A3.679,3.679,0,0,0,36.827,32.1,3.5,3.5,0,0,0,35,31.668H26.418V65.016h8.991a11.3,11.3,0,0,0,4.754-.841,7.374,7.374,0,0,0,2.786-2.116,6.8,6.8,0,0,0,1.3-2.814,14.324,14.324,0,0,0,.32-2.927h.7V65.77H17.429v-.754a1.286,1.286,0,0,0,.9-.347,3.021,3.021,0,0,0,.639-.872,4.377,4.377,0,0,0,.375-1.1,5.079,5.079,0,0,0,.118-.987V20.533a5.294,5.294,0,0,0-.118-1.044,4.422,4.422,0,0,0-.375-1.1,3.009,3.009,0,0,0-.639-.87,1.288,1.288,0,0,0-.9-.349v-.7H45.267Z" transform="translate(20.559 19.43)"/><path d="M37.18,25.2a7.256,7.256,0,0,0,1.973,5.133,21.062,21.062,0,0,0,4.93,3.827q2.956,1.713,6.408,3.306A43.67,43.67,0,0,1,56.9,41.087a19.711,19.711,0,0,1,4.93,4.784,11.216,11.216,0,0,1,1.973,6.7,12.858,12.858,0,0,1-1.419,6.177,13.572,13.572,0,0,1-3.742,4.407,16.234,16.234,0,0,1-5.192,2.639,19.8,19.8,0,0,1-5.772.87,18.019,18.019,0,0,1-6.872-1.247,17.152,17.152,0,0,1-5.161-3.191A14.127,14.127,0,0,1,32.4,57.935a10.357,10.357,0,0,1-1.131-4.494,3.268,3.268,0,0,1,.785-2.232,2.938,2.938,0,0,1,4.233,0,3.277,3.277,0,0,1,.782,2.232,19.429,19.429,0,0,0,.61,5.017A10.765,10.765,0,0,0,39.587,62.4a8.91,8.91,0,0,0,3.306,2.581,11.292,11.292,0,0,0,4.784.928,14.062,14.062,0,0,0,4.786-.782,11.6,11.6,0,0,0,3.712-2.116,9.8,9.8,0,0,0,2.408-3.132,8.713,8.713,0,0,0,.867-3.83,7.352,7.352,0,0,0-1.973-5.161,22.51,22.51,0,0,0-4.928-3.943q-2.959-1.8-6.41-3.45a46.033,46.033,0,0,1-6.408-3.714A20.333,20.333,0,0,1,34.8,35a10.978,10.978,0,0,1-1.973-6.613,11.1,11.1,0,0,1,.987-4.581,11.733,11.733,0,0,1,2.814-3.884,14.13,14.13,0,0,1,4.348-2.7A14.731,14.731,0,0,1,46.518,16.2a18.1,18.1,0,0,1,5.51.813,16.177,16.177,0,0,1,4.379,2.088,10.7,10.7,0,0,1,2.873,2.871,5.66,5.66,0,0,1,1.042,3.1,3.27,3.27,0,0,1-.782,2.232,2.938,2.938,0,0,1-4.233,0,3.281,3.281,0,0,1-.782-2.232,9.822,9.822,0,0,0-.61-3.625A6.814,6.814,0,0,0,52.2,18.9,7.1,7.1,0,0,0,49.65,17.4a9.706,9.706,0,0,0-3.132-.493,10.967,10.967,0,0,0-3.594.58,8.977,8.977,0,0,0-2.96,1.68,8.4,8.4,0,0,0-2.029,2.611A7.545,7.545,0,0,0,37.18,25.2" transform="translate(36.88 19.115)"/><path d="M83.939,25.868h-.7a11.486,11.486,0,0,0-.405-2.929,7.428,7.428,0,0,0-1.449-2.814,8.036,8.036,0,0,0-2.814-2.116,10.487,10.487,0,0,0-4.494-.841h-5.8V61.653a5.079,5.079,0,0,0,.118.985,4.312,4.312,0,0,0,.377,1.1,3.415,3.415,0,0,0,.636.9,1.226,1.226,0,0,0,.9.377v.754H59.29v-.754a1.225,1.225,0,0,0,.9-.377,3.415,3.415,0,0,0,.636-.9,4.312,4.312,0,0,0,.377-1.1,5.254,5.254,0,0,0,.118-.985V17.167H55.578a11.339,11.339,0,0,0-4.756.841,7.41,7.41,0,0,0-2.783,2.116,6.8,6.8,0,0,0-1.306,2.814,14.508,14.508,0,0,0-.318,2.929h-.754v-9.4H83.939Z" transform="translate(53.861 19.43)"/><path d="M22.968,11.836a2.475,2.475,0,0,1,2.661-2.805,2.475,2.475,0,0,1,2.659,2.805v5.8a2.473,2.473,0,0,1-2.659,2.8,2.474,2.474,0,0,1-2.661-2.8Zm1.752,5.909c0,.8.351,1.1.909,1.1s.907-.3.907-1.1V11.723c0-.8-.351-1.1-.907-1.1s-.909.3-.909,1.1Z" transform="translate(27.093 10.653)"/><path d="M28.408,14.043H30.67v1.593H28.408v4.6H26.655V9.089h4.636v1.593H28.408Z" transform="translate(31.442 10.722)"/><path d="M30.65,9.089h5.416v1.593H34.236V20.24H32.481V10.683H30.65Z" transform="translate(36.155 10.722)"/><path d="M35.966,20.24H34.214V9.09h1.752v4.778h1.992V9.09h1.783V20.24H37.959v-4.78H35.966Z" transform="translate(40.358 10.722)"/><path d="M39.815,13.789h2.406v1.593H39.815v3.265h3.027V20.24h-4.78V9.09h4.78v1.593H39.815Z" transform="translate(44.898 10.722)"/><rect width="9.965" height="1.09" transform="translate(91.551 23.332)"/><rect width="9.965" height="2.18" transform="translate(91.551 27.138)"/><rect width="9.965" height="1.09" transform="translate(36.286 23.332)"/><rect width="9.965" height="2.18" transform="translate(36.286 27.138)"/></g></svg>